<svg width="9" height="13" viewBox="0 0 9 13" fill="#ACC127" xmlns="http://www.w3.org/2000/svg">
<path d="M9 8.22948C9 10.588 6.98531 12.5 4.5 12.5C2.01469 12.5 0 10.588 0 8.22948C0 5.87091 4.5 0 4.5 0C4.5 0 9 5.87091 9 8.22948Z" />
<path d="M3.79289 11.6875C5.83702 11.6875 7.50001 9.95514 7.50001 7.82592C7.50001 7.36976 7.14504 7 6.70713 7C6.26922 7 5.91425 7.36976 5.91425 7.82592C5.91425 9.0444 4.96263 10.0357 3.79289 10.0357C3.35498 10.0357 3.00001 10.4054 3.00001 10.8616C3.00001 11.3177 3.35498 11.6875 3.79289 11.6875Z" fill="black"/>
</svg>
