<svg width="40" height="48" viewBox="0 0 40 48" fill="none" xmlns="http://www.w3.org/2000/svg">
<circle cx="19" cy="18" r="4.5" stroke="#0635AD"/>
<circle cx="19.7522" cy="9.89763" r="3" transform="rotate(-4.29283 19.7522 9.89763)" stroke="#0635AD"/>
<circle cx="25.7522" cy="13.8976" r="3" transform="rotate(-4.29283 25.7522 13.8976)" stroke="#0635AD"/>
<circle cx="12.7522" cy="12.8976" r="3" transform="rotate(-4.29283 12.7522 12.8976)" stroke="#0635AD"/>
<circle cx="25.7522" cy="20.8976" r="3" transform="rotate(-4.29283 25.7522 20.8976)" stroke="#0635AD"/>
<circle cx="20.6801" cy="4.97529" r="2" transform="rotate(-4.29283 20.6801 4.97529)" stroke="#0635AD"/>
<circle cx="30.6801" cy="10.9753" r="2" transform="rotate(-4.29283 30.6801 10.9753)" stroke="#0635AD"/>
<circle cx="7.68012" cy="10.9753" r="2" transform="rotate(-4.29283 7.68012 10.9753)" stroke="#0635AD"/>
<circle cx="21.7522" cy="25.8976" r="3" transform="rotate(-4.29283 21.7522 25.8976)" stroke="#0635AD"/>
<circle cx="22.6801" cy="30.9753" r="2" transform="rotate(-4.29283 22.6801 30.9753)" stroke="#0635AD"/>
<circle cx="30.6801" cy="22.9753" r="2" transform="rotate(-4.29283 30.6801 22.9753)" stroke="#0635AD"/>
<circle cx="15.7522" cy="24.8976" r="3" transform="rotate(-4.29283 15.7522 24.8976)" stroke="#0635AD"/>
<circle cx="11.6801" cy="27.9753" r="2" transform="rotate(-4.29283 11.6801 27.9753)" stroke="#0635AD"/>
<circle cx="11.9551" cy="20.3042" r="3" transform="rotate(10.1712 11.9551 20.3042)" stroke="#0635AD"/>
<circle cx="7.24339" cy="22.2672" r="2" transform="rotate(10.1712 7.24339 22.2672)" stroke="#0635AD"/>
<rect x="1.5" y="0.5" width="36" height="35" stroke="#0635AD"/>
<path d="M4.84375 41.7139H1.7627V44.2334H5.3418V45H0.825195V37.8906H5.29297V38.6621H1.7627V40.9473H4.84375V41.7139ZM11.9727 45H11.0303L7.45117 39.5215V45H6.50879V37.8906H7.45117L11.04 43.3936V37.8906H11.9727V45ZM14.3408 44.2334H18.4082V45H13.2324V44.2969L17.1289 38.6621H13.2959V37.8906H18.252V38.5791L14.3408 44.2334ZM21.792 41.46L23.6475 37.8906H24.7119L22.2607 42.3486V45H21.3232V42.3486L18.8721 37.8906H19.9463L21.792 41.46ZM26.8408 37.8906L29.165 43.6914L31.4893 37.8906H32.7051V45H31.7676V42.2314L31.8555 39.2432L29.5215 45H28.8037L26.4746 39.2578L26.5674 42.2314V45H25.6299V37.8906H26.8408ZM38.3789 41.7139H35.2979V44.2334H38.877V45H34.3604V37.8906H38.8281V38.6621H35.2979V40.9473H38.3789V41.7139Z" fill="#0635AD"/>
</svg>
