<?xml version="1.0" standalone="no"?>
<!DOCTYPE svg PUBLIC "-//W3C//DTD SVG 20010904//EN"
 "http://www.w3.org/TR/2001/REC-SVG-20010904/DTD/svg10.dtd">
<svg version="1.0" xmlns="http://www.w3.org/2000/svg"
 width="5316.000000pt" height="5316.000000pt" viewBox="0 0 5316.000000 5316.000000"
 preserveAspectRatio="xMidYMid meet">

<g transform="translate(0.000000,5316.000000) scale(0.100000,-0.100000)"
fill="#000000" stroke="none">
<path d="M35295 46903 c-381 -49 -738 -246 -970 -536 -65 -81 -146 -206 -181
-279 l-18 -38 -10680 -3 c-10129 -2 -10687 -3 -10795 -20 -473 -73 -849 -218
-1216 -468 -152 -103 -257 -191 -396 -329 -432 -430 -697 -959 -796 -1590 -17
-109 -18 -315 -18 -4165 0 -4354 -3 -4103 51 -4368 78 -388 242 -757 480
-1083 l81 -111 -166 -110 c-357 -238 -642 -506 -893 -840 -385 -513 -604
-1063 -696 -1748 -15 -110 -16 -1188 -19 -12538 l-3 -12417 17525 0 17525 0 0
11823 c0 7074 -4 11904 -10 12027 -28 637 -168 1202 -435 1755 -220 457 -502
853 -869 1221 -367 367 -763 649 -1220 869 l-149 72 62 42 c153 104 324 268
441 421 224 294 358 608 416 975 24 151 24 439 0 594 -38 252 -126 509 -241
711 -71 124 28 -17 -1894 2715 l-1491 2120 0 1140 0 1141 45 37 c24 21 76 75
113 120 179 213 288 442 338 712 16 86 19 151 19 470 0 418 -6 469 -75 676
-165 496 -551 845 -1080 977 l-105 26 -1325 2 c-729 1 -1338 0 -1355 -3z
m2625 -887 c217 -72 372 -233 425 -441 22 -86 22 -624 0 -710 -53 -208 -216
-376 -430 -442 -57 -17 -124 -18 -1300 -18 -1176 0 -1243 1 -1300 18 -211 65
-377 233 -429 433 -13 50 -16 121 -16 364 0 339 5 373 68 495 43 82 153 198
225 238 63 35 150 66 212 76 28 5 599 8 1270 7 1155 -1 1223 -2 1275 -20z
m-3927 -1023 c11 -318 79 -547 235 -788 93 -145 247 -308 364 -388 l47 -32 1
-1090 0 -1090 -1608 -2286 c-884 -1257 -1635 -2335 -1669 -2395 -184 -325
-276 -677 -275 -1059 0 -258 29 -444 107 -682 87 -265 256 -565 417 -739 l40
-44 -9638 -3 c-7457 -2 -9661 -6 -9734 -15 -147 -19 -375 -59 -482 -85 l-98
-24 -78 81 c-300 313 -483 721 -521 1161 -15 165 -15 7734 -1 7895 81 913 772
1632 1680 1749 36 5 4822 9 10636 10 l10571 1 6 -177z m3847 -2562 l0 -1098
1677 -2384 c922 -1311 1713 -2438 1757 -2504 143 -211 205 -392 213 -627 11
-272 -53 -499 -201 -723 -176 -264 -432 -435 -758 -507 l-103 -23 -3645 0
c-3519 0 -3648 1 -3745 19 -266 49 -493 165 -675 345 -248 244 -382 543 -397
881 -11 247 49 492 168 693 23 38 795 1141 1715 2450 l1674 2380 0 1098 0
1099 1160 0 1160 0 0 -1099z m2245 -8934 c634 -92 1159 -300 1649 -650 308
-220 618 -532 841 -847 340 -481 543 -1008 632 -1645 16 -112 18 -893 20
-11673 l3 -11552 -6222 2 -6223 3 -5 5220 c-5 4810 -7 5228 -22 5320 -80 477
-214 827 -462 1205 -422 642 -1105 1105 -1846 1253 -273 54 -182 52 -1980 52
-1844 0 -1719 4 -2008 -61 -973 -218 -1770 -948 -2080 -1905 -77 -238 -117
-458 -132 -732 -6 -105 -10 -2153 -10 -5264 l0 -5093 -6150 0 -6150 0 3 11988
c2 11346 3 11992 20 12085 94 531 272 938 574 1312 97 120 325 345 443 436
380 295 864 496 1320 548 52 6 109 13 125 15 17 1 6220 2 13785 2 13038 -2
13761 -3 13875 -19z m-11890 -14205 c447 -88 804 -272 1104 -571 316 -315 505
-682 588 -1145 16 -84 17 -510 20 -5268 l3 -5178 -3395 0 -3395 0 0 5160 c0
3561 3 5191 11 5258 75 690 491 1279 1114 1578 194 94 427 161 636 183 46 5
781 8 1644 7 1554 -2 1560 -2 1670 -24z"/>
<path d="M20653 44040 c-582 -40 -1084 -237 -1489 -583 -129 -110 -236 -226
-358 -385 -198 -262 -371 -543 -531 -867 -390 -788 -565 -1545 -660 -2845 -9
-118 -17 -215 -18 -217 -2 -1 -29 34 -62 78 -191 259 -526 467 -834 519 l-74
12 6 92 c4 50 16 226 29 391 19 254 22 382 23 830 0 544 -4 624 -46 965 -24
195 -89 526 -122 625 -29 85 -58 142 -144 289 -191 323 -302 452 -501 583
-317 209 -743 282 -1282 217 -411 -49 -732 -180 -993 -407 -185 -161 -376
-458 -502 -781 -58 -147 -77 -226 -109 -436 -89 -581 -116 -1051 -124 -2130
-10 -1169 -7 -1527 12 -1707 43 -406 126 -711 276 -1019 117 -239 254 -428
441 -610 367 -355 854 -567 1449 -630 193 -20 651 -14 830 10 407 57 860 185
1100 312 293 156 540 421 710 761 l56 114 52 -134 c131 -338 325 -622 555
-814 90 -75 256 -189 368 -252 217 -122 819 -212 1154 -172 358 42 665 175
918 396 45 39 103 96 128 125 l47 54 96 -63 c237 -154 502 -246 810 -282 131
-15 528 -6 661 16 234 37 418 94 583 180 393 204 651 554 741 1000 31 158 69
415 90 616 11 101 23 216 27 254 7 58 10 27 20 -190 44 -927 115 -1149 467
-1442 281 -234 617 -397 1027 -498 483 -118 1139 -147 1710 -74 247 31 314 46
500 116 969 361 1418 663 1776 1199 347 519 517 1253 428 1854 -52 355 -193
697 -409 999 l-67 94 21 36 c101 166 202 431 245 641 35 176 40 244 27 415
-30 400 -116 725 -276 1050 -357 723 -1003 1203 -1928 1429 -311 77 -485 96
-878 96 -564 0 -1015 -68 -1424 -215 -364 -130 -769 -384 -925 -578 -93 -116
-171 -290 -204 -457 -70 -350 -112 -1277 -117 -2600 l-1 -335 -19 170 c-58
537 -165 1145 -309 1757 -117 496 -183 702 -304 953 -214 444 -517 800 -891
1050 -115 77 -376 208 -516 259 -353 129 -852 195 -1266 166z m463 -881 c668
-65 1127 -377 1414 -964 86 -175 123 -286 200 -595 303 -1213 428 -2243 380
-3145 -18 -342 -65 -736 -119 -1000 -68 -335 -308 -489 -797 -512 -258 -12
-487 40 -655 148 -46 29 -174 194 -233 299 -64 115 -103 268 -114 447 l-7 108
-210 -1 c-115 0 -276 -6 -357 -13 -142 -13 -148 -14 -143 -35 52 -231 19 -477
-100 -749 -52 -118 -107 -191 -195 -263 -119 -96 -275 -154 -450 -169 -170
-14 -527 42 -630 98 -140 77 -271 197 -360 327 -215 316 -316 840 -289 1500
46 1136 154 1933 339 2515 190 594 559 1257 875 1570 246 244 569 391 955 434
110 12 370 13 496 0z m5779 -169 c411 -30 901 -196 1219 -413 166 -114 359
-317 466 -492 148 -240 241 -553 256 -855 5 -102 3 -126 -20 -212 -78 -302
-228 -518 -470 -677 -60 -39 -170 -106 -244 -148 l-136 -76 86 -23 c245 -65
426 -171 596 -348 175 -182 296 -402 358 -650 32 -126 43 -362 25 -513 -32
-253 -88 -448 -191 -659 -85 -174 -179 -303 -326 -445 -204 -195 -447 -331
-959 -534 -274 -109 -283 -111 -465 -136 -196 -26 -699 -37 -902 -20 -537 47
-949 191 -1196 418 -62 57 -74 93 -97 302 -46 421 -58 1011 -52 2496 5 1175
11 1470 37 1910 19 320 52 562 82 607 43 64 336 234 523 303 365 136 917 200
1410 165z m-11731 -115 c175 -31 266 -87 355 -219 109 -162 168 -277 190 -371
48 -210 84 -505 101 -820 24 -452 7 -865 -76 -1845 -35 -410 -51 -856 -32
-875 4 -4 47 9 96 28 179 72 379 107 605 107 125 0 155 -3 204 -21 240 -90
370 -315 423 -736 13 -106 5 -180 -40 -359 -58 -231 -141 -387 -280 -525 -99
-99 -159 -132 -359 -199 -610 -203 -1281 -211 -1745 -21 -352 144 -599 406
-740 783 -45 121 -79 261 -109 443 -21 134 -22 164 -21 735 3 1840 14 2198 85
2780 43 359 64 441 165 642 127 253 257 366 499 433 188 52 502 71 679 40z"/>
<path d="M20803 41504 c-24 -14 -43 -29 -43 -34 0 -5 -16 -116 -35 -246 -108
-723 -190 -1512 -170 -1639 8 -55 51 -101 102 -111 25 -5 88 3 193 23 l155 30
6 69 c11 114 10 617 -1 835 -23 467 -76 1080 -94 1091 -22 15 -72 7 -113 -18z"/>
<path d="M26601 41569 c-55 -11 -83 -29 -110 -73 -21 -33 -21 -38 -10 -148 14
-130 18 -589 6 -790 l-7 -137 175 112 176 112 79 158 c111 221 143 323 143
452 0 75 -4 108 -16 130 -9 17 -17 35 -17 41 0 24 -72 92 -119 113 -83 35
-209 48 -300 30z"/>
<path d="M26630 39367 c-54 -12 -152 -60 -168 -81 -5 -6 -14 -85 -21 -176 -6
-91 -22 -230 -34 -310 -16 -111 -22 -191 -22 -342 0 -108 3 -199 6 -202 9 -10
154 31 212 60 107 52 151 102 227 258 79 161 108 263 116 411 7 118 -12 224
-51 291 -47 81 -151 116 -265 91z"/>
<path d="M23999 29585 c-145 -29 -268 -95 -380 -205 -86 -85 -145 -178 -186
-295 l-28 -80 0 -2410 0 -2410 28 -80 c91 -258 301 -446 559 -499 69 -14 319
-16 2407 -16 2544 0 2404 -3 2548 57 214 90 368 267 435 500 l23 78 0 2370 0
2370 -23 79 c-64 221 -235 417 -432 496 -146 59 62 54 -2520 56 -1934 2 -2377
0 -2431 -11z m4659 -2992 l2 -2253 -2255 0 -2255 0 0 2255 0 2255 2253 -2
2252 -3 3 -2252z"/>
<path d="M34205 29584 c-151 -33 -264 -95 -374 -205 -81 -80 -128 -150 -168
-249 -56 -140 -53 2 -51 -2567 l3 -2368 23 -70 c86 -255 261 -428 512 -507
l75 -23 2390 0 2390 0 75 23 c209 66 367 199 459 386 83 170 76 -85 76 2591 0
2272 -1 2383 -18 2445 -73 258 -270 458 -532 537 -57 17 -177 18 -2425 20
-2067 1 -2374 0 -2435 -13z m4665 -2989 l0 -2255 -2255 0 -2255 0 0 2255 0
2255 2255 0 2255 0 0 -2255z"/>
<path d="M13843 29389 c-341 -40 -610 -309 -653 -651 -14 -116 -14 -4582 1
-4698 27 -216 144 -405 327 -528 105 -70 213 -108 349 -122 66 -7 850 -10
2393 -8 l2295 3 78 22 c268 76 471 281 538 541 18 73 19 137 19 2442 0 2321 0
2368 -20 2444 -66 260 -269 462 -539 539 l-76 22 -2320 1 c-1276 1 -2353 -2
-2392 -7z m4597 -2999 l0 -2260 -2252 2 -2253 3 -3 2245 c-1 1235 0 2251 3
2258 3 9 464 12 2255 12 l2250 0 0 -2260z"/>
<path d="M13775 20835 c-180 -40 -356 -156 -455 -300 -48 -70 -98 -182 -117
-264 -17 -72 -18 -205 -18 -2431 0 -2200 1 -2359 17 -2422 76 -294 311 -514
603 -564 68 -12 457 -14 2425 -12 l2345 3 73 23 c246 76 425 247 509 487 l28
80 0 2410 0 2410 -23 69 c-45 135 -107 231 -209 326 -85 80 -156 123 -270 164
l-88 31 -2380 2 c-1948 1 -2391 -1 -2440 -12z m4665 -2990 l0 -2255 -2252 2
-2253 3 -3 2253 -2 2252 2255 0 2255 0 0 -2255z"/>
<path d="M34225 20525 c-278 -51 -495 -244 -587 -520 l-23 -70 -3 -2365 c-3
-2675 -10 -2445 79 -2629 43 -87 63 -116 132 -186 93 -92 183 -150 302 -192
l80 -28 2379 -3 c2356 -2 2379 -2 2463 18 213 50 396 197 494 395 81 166 74
-80 74 2585 0 2564 3 2411 -52 2544 -71 170 -202 308 -368 387 -170 81 85 74
-2550 76 -1895 1 -2364 -1 -2420 -12z m4645 -2990 l0 -2255 -2255 0 -2255 0 0
2255 0 2255 2255 0 2255 0 0 -2255z"/>
</g>
</svg>
