<svg id="line_icons" height="512" viewBox="0 0 74 74" width="512" xmlns="http://www.w3.org/2000/svg" data-name="line icons"><path d="m55.782 72h-43.225a1 1 0 0 1 -1-1v-7.441a1 1 0 0 1 1-1h43.225a1 1 0 0 1 1 1v7.441a1 1 0 0 1 -1 1zm-42.225-2h41.225v-5.441h-41.225z"/><path d="m36.707 39.679a.988.988 0 0 1 -.492-.13l-12.856-7.283a1 1 0 0 1 -.377-1.363l11.878-20.945a1 1 0 0 1 1.363-.377l12.856 7.283a1 1 0 0 1 .377 1.364l-2.532 4.455a1 1 0 1 1 -1.739-.988l2.037-3.585-11.115-6.3-10.892 19.209 11.116 6.3 4.661-8.222a1 1 0 1 1 1.74.987l-5.154 9.091a1 1 0 0 1 -.871.504z"/><path d="m30.993 44.844a1 1 0 0 1 -.493-.13l-8.637-4.9a1 1 0 0 1 -.377-1.363l3.605-6.351a1 1 0 0 1 1.363-.377l8.638 4.9a1 1 0 0 1 .377 1.363l-3.606 6.358a1 1 0 0 1 -.6.471.959.959 0 0 1 -.27.029zm-7.274-6.274 6.9 3.911 2.618-4.619-6.9-3.91z"/><path d="m46.1 17.329a1 1 0 0 1 -.493-.13l-7.889-4.473a1 1 0 0 1 -.376-1.363l2.91-5.133a1 1 0 0 1 1.363-.376l7.885 4.473a1 1 0 0 1 .377 1.363l-2.91 5.132a1 1 0 0 1 -.867.507zm-6.525-5.85 6.149 3.487 1.923-3.393-6.147-3.486z"/><path d="m50.5 13.043a1 1 0 0 1 -.492-.13l-10.871-6.165a1 1 0 0 1 -.377-1.363l1.968-3.47a1 1 0 0 1 1.363-.377l10.872 6.162a1 1 0 0 1 .377 1.363l-1.967 3.47a1 1 0 0 1 -.873.51zm-9.507-7.543 9.133 5.179.981-1.731-9.133-5.177z"/><path d="m47.871 59.7a1 1 0 0 1 -.944-.673l-1.587-4.583a1 1 0 0 1 .735-1.3 12.079 12.079 0 0 0 .751-23.428 1 1 0 0 1 -.458-1.645 3.218 3.218 0 0 0 .479-3.676 1 1 0 0 1 1.117-1.439 18.905 18.905 0 0 1 .149 36.723 1 1 0 0 1 -.242.021zm-.287-4.89.926 2.675a16.908 16.908 0 0 0 .684-32.085c.015.162.023.327.023.492a5.216 5.216 0 0 1 -.548 2.337 14.078 14.078 0 0 1 -1.085 26.589z"/><path d="m49.548 64.562h-18.7a1 1 0 0 1 -.945-1.327l3.905-11.3a1 1 0 0 1 .945-.673h10.891a1 1 0 0 1 .945.673l3.905 11.3a1 1 0 0 1 -.946 1.327zm-17.3-2h15.9l-3.214-9.3h-9.47z"/><path d="m33.223 57.689h-11.723a1 1 0 0 1 -1-1v-4.43a1 1 0 0 1 1-1h13.252a1 1 0 0 1 .945 1.326l-1.529 4.431a1 1 0 0 1 -.945.673zm-10.723-2h10.01l.839-2.43h-10.849z"/><path d="m43.96 31.145a5.255 5.255 0 1 1 5.255-5.255 5.26 5.26 0 0 1 -5.255 5.255zm0-8.509a3.255 3.255 0 1 0 3.255 3.254 3.258 3.258 0 0 0 -3.255-3.254z"/></svg>