<svg width="40" height="35" viewBox="0 0 40 35" fill="none" xmlns="http://www.w3.org/2000/svg">
<path d="M39.5111 10.4502C39.0898 9.99055 38.4516 9.72222 37.7778 9.72222H35.5556C35.5556 8.64811 34.5609 7.77777 33.3333 7.77777H31.1111V5.83333C31.1111 4.75922 30.1164 3.88889 28.8889 3.88889H2.22222C0.994667 3.88889 0 4.75922 0 5.83333V29.1667C0 30.2408 0.994667 31.1111 2.22222 31.1111H6.66667H28.8889H33.3333C34.3751 31.1111 35.2782 30.478 35.5013 29.5882L39.9458 12.0882C40.0933 11.5127 39.9333 10.9099 39.5111 10.4502ZM2.22222 5.83333H28.8889V7.77777H26.6667C25.4391 7.77777 24.4444 8.64811 24.4444 9.72222H11.1111C10.0693 9.72222 9.168 10.3553 8.94222 11.2451C8.94222 11.2451 4.44622 29.0267 4.44622 29.1667H2.22222V5.83333Z" fill="#B3CE0A"/>
<path d="M34 25.1921C34 28.3997 30.866 31 27 31C23.134 31 20 28.3997 20 25.1921C20 21.9844 27 14 27 14C27 14 34 21.9844 34 25.1921Z" fill="#FF2E3D"/>
<path d="M26.2334 30C29.4131 30 32 27.0434 32 23.4096C32 22.6311 31.4478 22 30.7666 22C30.0855 22 29.5333 22.6311 29.5333 23.4096C29.5333 25.4891 28.053 27.1809 26.2334 27.1809C25.5522 27.1809 25 27.8119 25 28.5904C25 29.3689 25.5522 30 26.2334 30Z" fill="black"/>
</svg>
