<svg width="20" height="16" viewBox="0 0 20 16" fill="none" xmlns="http://www.w3.org/2000/svg">
<path d="M18 2H10L8 0H2C0.89 0 0.00999999 0.89 0.00999999 2L0 14C0 15.11 0.89 16 2 16H18C19.11 16 20 15.11 20 14V4C20 2.89 19.11 2 18 2Z" fill="#B3CE0A"/>
<path d="M18 9.26687C18 10.7764 16.6569 12 15 12C13.3431 12 12 10.7764 12 9.26687C12 7.75738 15 4 15 4C15 4 18 7.75738 18 9.26687Z" fill="#FF2E3D"/>
<path d="M14.5 11C15.8628 11 16.9714 9.89129 16.9714 8.52859C16.9714 8.23665 16.7348 8 16.4428 8C16.1509 8 15.9142 8.23665 15.9142 8.52859C15.9142 9.30841 15.2798 9.94282 14.5 9.94282C14.2081 9.94282 13.9714 10.1795 13.9714 10.4714C13.9714 10.7634 14.2081 11 14.5 11Z" fill="black"/>
</svg>
