<svg version="1.0" xmlns="http://www.w3.org/2000/svg"
 width="512.000000pt" height="512.000000pt" viewBox="0 0 512.000000 512.000000"
 preserveAspectRatio="xMidYMid meet">

<g transform="translate(0.000000,512.000000) scale(0.100000,-0.100000)"
fill="#000000" stroke="none">
<path d="M1755 5108 c-44 -23 -45 -32 -45 -270 l0 -228 -745 -2 -744 -3 -23
-23 -23 -23 -3 -489 -3 -490 -53 0 c-111 0 -116 -11 -116 -259 0 -185 1 -191
23 -217 20 -23 34 -28 85 -32 l62 -4 0 -1505 0 -1505 29 -29 29 -29 2332 0
2332 0 29 29 29 29 0 1505 0 1505 62 4 c51 4 65 9 85 32 22 26 23 32 23 217 0
248 -5 259 -116 259 l-53 0 -3 490 -3 489 -23 23 -23 23 -744 3 -745 2 0 224
c0 124 -3 232 -6 241 -18 45 -16 45 -846 45 -547 -1 -789 -4 -803 -12z m1485
-843 l0 -685 -680 0 -680 0 0 685 0 685 680 0 680 0 0 -685z m-1535 -255 l0
-425 -682 -3 -683 -2 0 430 0 430 683 -2 682 -3 0 -425z m3075 0 l0 -430 -682
2 -683 3 -3 415 c-1 228 0 421 3 427 3 10 149 13 685 13 l680 0 0 -430z m170
-685 l0 -85 -2390 0 -2390 0 0 85 0 85 2390 0 2390 0 0 -85z m-170 -1705 l0
-1450 -215 0 -215 0 0 1209 0 1210 -24 28 -24 28 -647 3 c-434 2 -659 -1 -685
-8 -75 -20 -70 72 -70 -1270 l0 -1200 -1280 0 -1280 0 0 1450 0 1450 2220 0
2220 0 0 -1450z m-600 640 l0 -210 -555 0 -555 0 0 210 0 210 555 0 555 0 0
-210z m0 -810 l0 -430 -552 2 -553 3 -3 428 -2 427 555 0 555 0 0 -430z m0
-940 l0 -340 -555 0 -555 0 0 340 0 340 555 0 555 0 0 -340z"/>
<path d="M2349 4765 c-36 -20 -49 -62 -49 -161 l0 -84 -100 0 c-94 0 -103 -2
-125 -25 -25 -24 -25 -25 -25 -227 1 -144 4 -208 13 -219 23 -30 56 -39 145
-39 l90 0 4 -100 c3 -93 6 -102 31 -128 l27 -27 200 0 200 0 27 27 c25 26 28
35 31 128 l4 100 90 0 c89 0 122 9 145 39 9 11 12 75 13 219 0 202 0 203 -25
227 -22 23 -31 25 -125 25 l-100 0 0 84 c0 101 -13 142 -51 161 -40 21 -382
21 -420 0z m298 -250 c2 -49 5 -100 8 -113 8 -35 61 -52 160 -52 l85 0 0 -85
0 -85 -100 0 c-94 0 -103 -2 -125 -25 -23 -22 -25 -31 -25 -125 l0 -100 -90 0
-90 0 0 100 c0 94 -2 103 -25 125 -22 23 -31 25 -125 25 l-100 0 0 85 0 85 84
0 c92 0 141 13 156 40 6 10 10 61 10 113 0 51 3 97 7 101 4 4 43 5 88 4 l80
-3 2 -90z"/>
<path d="M993 2636 c-17 -8 -36 -23 -42 -35 -8 -13 -11 -211 -11 -624 l0 -604
-62 -6 c-51 -5 -67 -10 -85 -32 -23 -26 -23 -31 -23 -271 l0 -245 25 -24 24
-25 801 0 801 0 24 25 25 24 0 249 0 249 -24 22 c-18 17 -41 24 -85 28 l-61 6
0 612 0 612 -26 24 -26 24 -611 2 c-505 2 -618 0 -644 -11z m1137 -716 l0
-550 -510 0 -510 0 0 550 0 550 510 0 510 0 0 -550z m170 -855 l0 -125 -680 0
-680 0 0 125 0 125 680 0 680 0 0 -125z"/>
<path d="M1433 2147 c-135 -134 -153 -157 -153 -185 0 -46 38 -82 87 -82 35 0
47 10 185 148 143 143 148 149 148 189 0 33 -5 46 -26 62 -57 45 -74 35 -241
-132z"/>
<path d="M1623 1918 c-118 -117 -224 -226 -235 -242 -45 -61 -9 -136 65 -136
38 0 48 8 244 203 224 220 263 266 263 307 0 40 -44 80 -88 80 -32 0 -52 -17
-249 -212z"/>
<path d="M3879 1607 c-27 -21 -39 -54 -39 -112 0 -59 19 -109 45 -119 35 -13
76 -6 100 19 22 21 25 33 25 90 0 94 -25 134 -85 134 -16 0 -37 -5 -46 -12z"/>
</g>
</svg>
