<svg id="svg" version="1.1" xmlns="http://www.w3.org/2000/svg" xmlns:xlink="http://www.w3.org/1999/xlink" width="400" height="399.592252803262" viewBox="0, 0, 400,399.592252803262"><g id="svgg"><path id="path0" d="M33.467 0.297 C 35.060 0.373,37.667 0.373,39.261 0.297 C 40.854 0.221,39.550 0.159,36.364 0.159 C 33.177 0.159,31.873 0.221,33.467 0.297 M339.361 0.300 C 346.778 0.360,358.916 0.360,366.334 0.300 C 373.751 0.239,367.682 0.189,352.847 0.189 C 338.012 0.189,331.943 0.239,339.361 0.300 M21.279 0.675 C 21.663 0.776,22.293 0.776,22.677 0.675 C 23.062 0.575,22.747 0.492,21.978 0.492 C 21.209 0.492,20.894 0.575,21.279 0.675 M176.224 0.525 C 176.224 0.593,176.808 1.178,177.522 1.823 L 178.821 2.997 177.648 1.698 C 176.553 0.488,176.224 0.216,176.224 0.525 M383.534 2.164 C 385.357 3.121,387.155 4.167,387.530 4.489 C 387.905 4.810,388.482 5.204,388.811 5.363 C 389.141 5.522,388.871 5.189,388.212 4.622 C 387.009 3.590,381.193 0.389,380.558 0.411 C 380.372 0.418,381.711 1.206,383.534 2.164 M15.338 2.195 C 13.825 2.963,12.138 3.974,11.588 4.441 L 10.589 5.290 11.588 4.708 C 12.138 4.389,13.079 3.809,13.681 3.420 C 14.282 3.031,15.811 2.286,17.077 1.765 C 18.344 1.244,19.090 0.814,18.735 0.809 C 18.380 0.803,16.851 1.428,15.338 2.195 M194.176 2.269 L 193.207 3.339 194.505 2.441 C 195.816 1.536,196.079 1.199,195.474 1.199 C 195.293 1.199,194.708 1.680,194.176 2.269 M192.696 26.553 C 192.647 39.290,192.742 49.539,192.907 49.331 C 193.072 49.122,193.112 38.701,192.996 26.174 L 192.785 3.397 192.696 26.553 M179.421 6.793 C 179.421 7.672,179.600 8.392,179.820 8.392 C 180.040 8.392,180.220 7.672,180.220 6.793 C 180.220 5.914,180.040 5.195,179.820 5.195 C 179.600 5.195,179.421 5.914,179.421 6.793 M6.869 8.593 C 4.898 10.704,3.466 12.765,2.034 15.552 L 0.000 19.512 0.094 45.420 L 0.188 71.329 0.394 45.155 L 0.599 18.981 1.945 16.384 C 3.836 12.735,6.450 9.161,8.637 7.236 C 9.663 6.333,10.315 5.594,10.086 5.594 C 9.857 5.594,8.409 6.944,6.869 8.593 M391.636 8.092 C 393.929 10.416,396.095 13.447,397.847 16.783 L 399.001 18.981 399.208 39.560 L 399.415 60.140 399.508 39.851 L 399.600 19.563 398.034 16.447 C 395.915 12.232,391.063 5.994,389.905 5.994 C 389.718 5.994,390.497 6.938,391.636 8.092 M178.717 9.739 C 178.479 10.263,177.692 11.387,176.969 12.239 C 175.863 13.540,175.830 13.628,176.763 12.794 C 177.973 11.712,179.620 9.257,179.331 8.968 C 179.232 8.869,178.956 9.216,178.717 9.739 M32.480 13.881 C 33.530 13.963,35.149 13.962,36.076 13.878 C 37.003 13.795,36.144 13.727,34.166 13.728 C 32.188 13.729,31.429 13.798,32.480 13.881 M207.176 30.370 C 207.176 39.710,207.228 43.531,207.292 38.861 C 207.356 34.191,207.356 26.548,207.292 21.878 C 207.228 17.208,207.176 21.029,207.176 30.370 M358.142 13.883 C 359.625 13.960,362.053 13.960,363.536 13.883 C 365.020 13.806,363.806 13.743,360.839 13.743 C 357.872 13.743,356.658 13.806,358.142 13.883 M23.676 14.261 C 24.061 14.362,24.690 14.362,25.075 14.261 C 25.460 14.161,25.145 14.079,24.376 14.079 C 23.606 14.079,23.292 14.161,23.676 14.261 M374.925 14.261 C 375.310 14.362,375.939 14.362,376.324 14.261 C 376.708 14.161,376.394 14.079,375.624 14.079 C 374.855 14.079,374.540 14.161,374.925 14.261 M20.779 14.985 C 20.230 15.299,19.960 15.556,20.180 15.556 C 20.400 15.556,21.029 15.299,21.578 14.985 C 22.128 14.671,22.398 14.414,22.178 14.414 C 21.958 14.414,21.329 14.671,20.779 14.985 M378.022 14.985 C 378.571 15.299,379.201 15.556,379.421 15.556 C 379.640 15.556,379.371 15.299,378.821 14.985 C 378.272 14.671,377.642 14.414,377.423 14.414 C 377.203 14.414,377.473 14.671,378.022 14.985 M17.364 17.682 L 15.784 19.381 17.483 17.801 C 19.062 16.332,19.364 15.984,19.062 15.984 C 18.997 15.984,18.233 16.748,17.364 17.682 M382.001 17.682 C 382.981 18.726,383.835 19.580,383.899 19.580 C 384.199 19.580,383.882 19.222,382.118 17.566 L 380.220 15.784 382.001 17.682 M14.850 20.996 C 14.181 22.466,14.308 22.779,15.032 21.443 C 15.370 20.819,15.572 20.234,15.481 20.143 C 15.389 20.051,15.106 20.435,14.850 20.996 M384.044 20.180 C 384.044 20.400,384.301 21.029,384.615 21.578 C 384.929 22.128,385.186 22.398,385.186 22.178 C 385.186 21.958,384.929 21.329,384.615 20.779 C 384.301 20.230,384.044 19.960,384.044 20.180 M14.079 23.976 C 14.079 24.745,14.161 25.060,14.261 24.675 C 14.362 24.291,14.362 23.661,14.261 23.277 C 14.161 22.892,14.079 23.207,14.079 23.976 M385.307 24.376 C 385.307 25.145,385.390 25.460,385.490 25.075 C 385.591 24.690,385.591 24.061,385.490 23.676 C 385.390 23.292,385.307 23.606,385.307 24.376 M385.758 34.366 C 385.758 36.454,385.826 37.308,385.908 36.264 C 385.990 35.220,385.990 33.511,385.908 32.468 C 385.826 31.424,385.758 32.278,385.758 34.366 M13.746 39.760 C 13.747 43.057,13.809 44.352,13.884 42.639 C 13.959 40.926,13.958 38.228,13.883 36.645 C 13.807 35.062,13.746 36.464,13.746 39.760 M241.359 39.960 C 241.359 40.180,241.618 40.360,241.934 40.360 C 242.251 40.360,242.621 40.180,242.757 39.960 C 242.893 39.740,242.634 39.560,242.181 39.560 C 241.729 39.560,241.359 39.740,241.359 39.960 M249.151 39.960 C 249.287 40.180,249.747 40.360,250.173 40.360 C 250.600 40.360,250.949 40.180,250.949 39.960 C 250.949 39.740,250.489 39.560,249.926 39.560 C 249.346 39.560,249.011 39.733,249.151 39.960 M261.879 44.389 C 262.945 45.059,263.897 45.527,263.995 45.429 C 264.195 45.229,260.778 43.153,260.269 43.164 C 260.088 43.169,260.812 43.720,261.879 44.389 M223.922 48.510 C 222.413 49.915,221.269 51.149,221.379 51.252 C 221.489 51.354,222.820 50.204,224.338 48.696 C 227.815 45.242,227.554 45.125,223.922 48.510 M268.124 49.342 C 269.090 50.327,269.970 51.043,270.079 50.933 C 270.341 50.671,267.287 47.552,266.769 47.552 C 266.548 47.552,267.158 48.358,268.124 49.342 M219.481 53.017 C 218.571 53.651,218.286 54.346,218.935 54.346 C 219.130 54.346,219.583 53.896,219.943 53.347 C 220.700 52.192,220.682 52.179,219.481 53.017 M272.141 53.766 C 272.134 53.997,272.308 54.366,272.529 54.587 C 272.750 54.808,273.555 56.147,274.318 57.564 C 276.002 60.689,276.189 60.429,274.558 57.231 C 273.271 54.709,272.160 53.117,272.141 53.766 M217.181 55.547 C 216.449 56.355,216.568 57.047,217.354 56.561 C 217.960 56.187,218.677 54.745,218.258 54.745 C 218.064 54.745,217.580 55.106,217.181 55.547 M254.693 56.120 C 256.992 57.533,259.645 60.235,261.385 62.937 C 263.141 65.663,263.428 65.715,261.931 63.035 C 260.080 59.724,255.140 55.102,253.511 55.157 C 253.311 55.164,253.843 55.597,254.693 56.120 M208.192 57.419 C 208.192 57.638,208.551 58.144,208.991 58.541 C 209.431 58.939,209.790 59.085,209.790 58.865 C 209.790 58.645,209.431 58.140,208.991 57.742 C 208.551 57.344,208.192 57.199,208.192 57.419 M214.967 58.187 C 214.312 58.957,213.687 59.298,213.087 59.213 C 212.592 59.143,212.188 59.278,212.188 59.513 C 212.188 60.265,213.948 59.966,215.142 59.011 C 215.778 58.502,216.219 57.849,216.123 57.560 C 216.005 57.206,215.626 57.412,214.967 58.187 M210.190 59.141 C 210.190 59.361,210.460 59.540,210.789 59.540 C 211.119 59.540,211.389 59.361,211.389 59.141 C 211.389 58.921,211.119 58.741,210.789 58.741 C 210.460 58.741,210.190 58.921,210.190 59.141 M193.810 60.816 C 193.815 61.579,196.153 65.534,196.599 65.534 C 196.807 65.534,196.874 65.265,196.748 64.935 C 196.621 64.605,196.357 64.336,196.161 64.336 C 195.965 64.336,195.804 64.066,195.804 63.736 C 195.804 63.407,195.614 63.137,195.381 63.137 C 195.148 63.137,195.069 62.957,195.205 62.737 C 195.341 62.517,195.251 62.338,195.005 62.338 C 194.759 62.338,194.669 62.158,194.805 61.938 C 194.941 61.718,194.851 61.538,194.605 61.538 C 194.360 61.538,194.262 61.371,194.389 61.166 C 194.515 60.962,194.436 60.682,194.212 60.543 C 193.989 60.405,193.808 60.528,193.810 60.816 M230.569 61.738 C 230.287 62.079,230.146 62.447,230.256 62.557 C 230.366 62.667,230.687 62.478,230.969 62.138 C 231.251 61.798,231.393 61.429,231.283 61.319 C 231.173 61.209,230.852 61.398,230.569 61.738 M228.936 64.002 C 228.661 64.515,227.451 65.969,226.245 67.233 C 225.040 68.497,224.225 69.530,224.433 69.530 C 225.252 69.530,230.104 63.737,229.659 63.292 C 229.536 63.169,229.211 63.488,228.936 64.002 M197.003 66.259 C 197.003 66.808,199.375 68.890,199.667 68.598 C 199.818 68.447,199.427 67.786,198.797 67.129 C 197.667 65.949,197.003 65.627,197.003 66.259 M222.378 70.584 C 221.938 70.930,221.039 71.457,220.380 71.755 C 219.720 72.053,219.435 72.303,219.745 72.312 C 220.322 72.328,223.776 70.444,223.776 70.113 C 223.776 69.758,223.167 69.963,222.378 70.584 M211.089 73.402 C 211.474 73.503,212.103 73.503,212.488 73.402 C 212.872 73.302,212.557 73.220,211.788 73.220 C 211.019 73.220,210.704 73.302,211.089 73.402 M265.481 79.720 C 265.482 81.918,265.549 82.766,265.630 81.605 C 265.711 80.444,265.710 78.646,265.628 77.609 C 265.546 76.572,265.480 77.522,265.481 79.720 M279.449 79.920 C 279.449 81.349,279.521 81.933,279.610 81.219 C 279.698 80.504,279.698 79.336,279.610 78.621 C 279.521 77.907,279.449 78.492,279.449 79.920 M211.688 86.603 C 212.403 86.691,213.571 86.691,214.286 86.603 C 215.000 86.514,214.416 86.442,212.987 86.442 C 211.558 86.442,210.974 86.514,211.688 86.603 M221.179 88.578 C 221.838 88.926,222.693 89.487,223.079 89.824 C 223.465 90.162,223.887 90.332,224.016 90.203 C 224.305 89.914,221.191 87.906,220.487 87.928 C 220.208 87.937,220.519 88.229,221.179 88.578 M201.343 89.933 C 200.449 90.711,200.446 90.732,201.276 90.330 C 201.759 90.097,202.264 89.727,202.399 89.508 C 202.792 88.873,202.361 89.046,201.343 89.933 M225.967 92.300 C 226.821 93.175,227.610 93.802,227.719 93.693 C 227.981 93.431,225.333 90.709,224.816 90.709 C 224.594 90.709,225.112 91.425,225.967 92.300 M198.203 92.106 C 197.688 92.655,197.388 93.225,197.536 93.373 C 197.828 93.665,199.800 91.980,199.800 91.439 C 199.800 90.829,199.147 91.102,198.203 92.106 M262.525 95.020 C 261.983 96.049,260.955 97.658,260.242 98.596 C 259.530 99.533,259.113 100.300,259.316 100.300 C 259.924 100.300,264.042 93.679,263.667 93.304 C 263.582 93.219,263.068 93.991,262.525 95.020 M195.416 96.004 C 194.107 98.287,193.986 98.701,194.629 98.701 C 194.862 98.701,194.941 98.521,194.805 98.302 C 194.669 98.082,194.759 97.902,195.005 97.902 C 195.251 97.902,195.341 97.722,195.205 97.502 C 195.069 97.283,195.159 97.103,195.405 97.103 C 195.650 97.103,195.740 96.923,195.604 96.703 C 195.469 96.484,195.548 96.304,195.781 96.304 C 196.013 96.304,196.204 96.034,196.204 95.704 C 196.204 95.375,196.364 95.105,196.561 95.105 C 196.757 95.105,197.021 94.835,197.148 94.505 C 197.701 93.064,196.513 94.092,195.416 96.004 M228.172 94.414 C 228.172 94.804,232.731 100.806,233.534 101.472 C 233.909 101.783,233.023 100.433,231.564 98.471 C 228.729 94.657,228.172 93.992,228.172 94.414 M275.756 99.517 C 275.729 100.040,274.506 102.128,271.083 107.493 C 270.646 108.177,270.813 108.083,271.614 107.195 C 273.223 105.409,276.245 100.040,275.993 99.414 C 275.850 99.056,275.778 99.087,275.756 99.517 M212.987 100.300 C 212.987 100.519,213.171 100.699,213.396 100.699 C 213.620 100.699,214.613 101.445,215.602 102.356 C 217.646 104.241,218.345 104.227,216.752 102.334 C 215.340 100.656,212.987 99.385,212.987 100.300 M208.857 101.752 L 206.993 103.204 206.993 147.894 L 206.993 192.584 238.262 192.696 C 255.460 192.757,269.701 192.672,269.910 192.507 C 270.119 192.343,256.138 192.208,238.841 192.208 L 207.393 192.208 207.393 147.844 L 207.393 103.480 209.191 102.213 C 210.180 101.515,210.989 100.800,210.989 100.622 C 210.989 100.125,210.851 100.198,208.857 101.752 M255.585 103.124 C 254.728 103.769,254.147 104.296,254.294 104.296 C 254.667 104.296,257.742 102.331,257.742 102.093 C 257.742 101.682,257.086 101.995,255.585 103.124 M217.782 104.628 C 217.782 104.810,218.697 105.934,219.816 107.125 L 221.850 109.291 220.116 106.804 C 218.504 104.493,217.782 103.819,217.782 104.628 M192.607 109.491 C 192.607 111.102,192.683 112.346,192.775 112.253 C 193.067 111.961,193.158 107.111,192.877 106.829 C 192.729 106.681,192.607 107.879,192.607 109.491 M268.124 110.498 C 267.158 111.482,266.548 112.288,266.769 112.288 C 267.287 112.288,270.341 109.169,270.079 108.907 C 269.970 108.798,269.090 109.513,268.124 110.498 M262.937 114.753 C 261.289 115.871,260.258 116.677,260.647 116.544 C 261.932 116.105,266.896 112.565,266.034 112.703 C 265.979 112.712,264.585 113.634,262.937 114.753 M229.371 115.282 C 229.371 115.552,232.616 117.167,232.797 116.986 C 232.881 116.903,232.144 116.443,231.160 115.965 C 230.176 115.487,229.371 115.179,229.371 115.282 M77.323 119.880 C 77.166 120.134,78.259 120.280,80.320 120.280 C 82.381 120.280,83.474 120.134,83.317 119.880 C 83.181 119.660,81.832 119.481,80.320 119.481 C 78.807 119.481,77.459 119.660,77.323 119.880 M242.557 119.880 C 242.557 120.100,242.827 120.280,243.157 120.280 C 243.487 120.280,243.756 120.100,243.756 119.880 C 243.756 119.660,243.487 119.481,243.157 119.481 C 242.827 119.481,242.557 119.660,242.557 119.880 M248.951 119.880 C 248.951 120.100,249.311 120.280,249.750 120.280 C 250.190 120.280,250.549 120.100,250.549 119.880 C 250.549 119.660,250.190 119.481,249.750 119.481 C 249.311 119.481,248.951 119.660,248.951 119.880 M57.143 125.142 C 54.750 126.512,50.749 129.368,50.749 129.707 C 50.749 129.996,51.586 129.497,52.555 128.629 C 52.998 128.232,54.870 127.000,56.714 125.891 C 60.365 123.697,60.706 123.102,57.143 125.142 M102.274 125.444 C 103.910 126.329,105.296 127.005,105.354 126.947 C 105.546 126.755,101.324 124.381,100.300 124.105 C 99.750 123.956,100.639 124.559,102.274 125.444 M106.939 128.336 C 107.573 128.811,109.126 130.199,110.390 131.420 C 111.653 132.642,112.687 133.460,112.687 133.238 C 112.687 132.478,106.970 127.473,106.102 127.473 C 105.928 127.473,106.305 127.861,106.939 128.336 M192.208 160.360 L 192.208 192.208 147.876 192.208 C 118.752 192.208,103.459 192.071,103.297 191.808 C 102.908 191.179,102.297 191.342,102.553 192.008 C 102.755 192.536,108.140 192.607,147.681 192.607 L 192.580 192.607 192.694 160.939 C 192.756 143.521,192.672 129.100,192.507 128.891 C 192.343 128.682,192.208 142.843,192.208 160.360 M45.935 134.738 C 44.401 136.678,42.757 139.462,42.757 140.120 C 42.757 140.281,43.399 139.344,44.184 138.038 C 44.969 136.733,45.921 135.305,46.301 134.865 C 47.507 133.468,48.057 132.667,47.810 132.667 C 47.679 132.667,46.835 133.599,45.935 134.738 M77.637 134.162 C 78.909 134.241,80.887 134.241,82.033 134.160 C 83.178 134.080,82.138 134.015,79.720 134.016 C 77.303 134.017,76.365 134.082,77.637 134.162 M113.192 134.066 C 114.240 135.988,117.083 140.337,117.083 140.018 C 117.083 139.466,114.389 135.009,113.606 134.266 C 113.258 133.936,113.072 133.846,113.192 134.066 M95.711 137.492 C 97.246 138.387,98.931 139.511,99.455 139.989 C 100.088 140.566,100.349 140.657,100.229 140.260 C 100.051 139.667,94.073 135.869,93.313 135.866 C 93.097 135.865,94.176 136.596,95.711 137.492 M62.138 138.213 C 59.041 140.204,55.145 144.557,55.145 146.025 C 55.145 146.237,55.662 145.611,56.295 144.634 C 57.758 142.372,60.772 139.496,63.337 137.912 C 64.436 137.234,65.155 136.677,64.935 136.675 C 64.715 136.673,63.457 137.365,62.138 138.213 M101.898 142.061 C 101.898 142.173,102.438 143.009,103.097 143.920 C 104.554 145.931,104.675 145.639,103.292 143.449 C 102.378 142.000,101.898 141.523,101.898 142.061 M39.560 149.075 C 39.560 149.527,39.740 149.786,39.960 149.650 C 40.180 149.515,40.360 149.144,40.360 148.828 C 40.360 148.511,40.180 148.252,39.960 148.252 C 39.740 148.252,39.560 148.622,39.560 149.075 M119.481 150.826 C 119.481 151.362,119.660 151.912,119.880 152.048 C 120.113 152.192,120.280 151.786,120.280 151.073 C 120.280 150.400,120.100 149.850,119.880 149.850 C 119.660 149.850,119.481 150.289,119.481 150.826 M39.161 153.447 C 39.161 154.106,39.341 154.645,39.560 154.645 C 39.780 154.645,39.960 154.106,39.960 153.447 C 39.960 152.787,39.780 152.248,39.560 152.248 C 39.341 152.248,39.161 152.787,39.161 153.447 M119.481 156.044 C 119.481 156.593,119.660 157.043,119.880 157.043 C 120.100 157.043,120.280 156.593,120.280 156.044 C 120.280 155.495,120.100 155.045,119.880 155.045 C 119.660 155.045,119.481 155.495,119.481 156.044 M39.560 157.819 C 39.560 158.271,39.740 158.641,39.960 158.641 C 40.180 158.641,40.360 158.382,40.360 158.066 C 40.360 157.749,40.180 157.379,39.960 157.243 C 39.740 157.107,39.560 157.366,39.560 157.819 M40.808 161.838 C 40.801 162.168,41.042 162.977,41.344 163.636 C 42.051 165.180,42.061 164.462,41.359 162.637 C 41.062 161.868,40.814 161.508,40.808 161.838 M56.707 163.769 C 56.923 164.172,57.413 164.756,57.797 165.068 C 58.228 165.418,58.132 165.139,57.544 164.336 C 56.494 162.902,56.101 162.635,56.707 163.769 M101.028 165.857 C 99.999 166.943,99.290 167.832,99.451 167.832 C 99.743 167.832,101.670 165.857,102.667 164.535 C 103.594 163.307,102.951 163.825,101.028 165.857 M41.958 165.181 C 41.958 165.629,43.832 169.155,44.534 170.030 C 44.888 170.470,44.511 169.570,43.698 168.032 C 42.080 164.970,41.958 164.769,41.958 165.181 M117.148 166.051 C 116.478 167.521,116.606 167.834,117.330 166.498 C 117.668 165.874,117.870 165.289,117.779 165.198 C 117.687 165.106,117.403 165.490,117.148 166.051 M61.538 168.831 C 61.812 169.161,62.216 169.431,62.436 169.431 C 62.658 169.431,62.615 169.166,62.338 168.831 C 62.064 168.501,61.660 168.232,61.441 168.232 C 61.218 168.232,61.261 168.497,61.538 168.831 M97.103 169.031 C 96.553 169.461,96.284 169.812,96.503 169.812 C 96.723 169.812,97.353 169.461,97.902 169.031 C 98.452 168.601,98.721 168.250,98.501 168.250 C 98.282 168.250,97.652 168.601,97.103 169.031 M63.736 170.472 C 65.177 171.582,66.163 171.895,64.935 170.852 C 64.276 170.292,63.556 169.839,63.337 169.845 C 63.117 169.851,63.297 170.133,63.736 170.472 M94.705 170.829 C 94.428 171.164,94.385 171.429,94.607 171.429 C 94.827 171.429,95.231 171.159,95.504 170.829 C 95.782 170.495,95.825 170.230,95.602 170.230 C 95.383 170.230,94.979 170.500,94.705 170.829 M46.335 172.696 C 47.054 173.722,48.191 175.071,48.862 175.693 C 49.533 176.314,49.133 175.654,47.973 174.226 C 45.255 170.877,44.696 170.355,46.335 172.696 M91.914 173.221 C 91.172 173.987,90.653 174.703,90.763 174.812 C 90.872 174.921,91.660 174.294,92.515 173.419 C 93.369 172.544,93.887 171.828,93.666 171.828 C 93.445 171.828,92.656 172.455,91.914 173.221 M399.720 173.826 C 399.720 175.035,399.795 175.529,399.887 174.925 C 399.978 174.321,399.978 173.332,399.887 172.727 C 399.795 172.123,399.720 172.617,399.720 173.826 M67.725 173.819 C 68.580 174.694,69.368 175.321,69.477 175.211 C 69.740 174.949,67.092 172.228,66.574 172.228 C 66.353 172.228,66.871 172.944,67.725 173.819 M110.290 176.345 C 109.081 177.501,107.570 178.849,106.932 179.339 C 106.294 179.830,105.881 180.340,106.014 180.473 C 106.147 180.606,107.748 179.257,109.572 177.476 C 111.395 175.695,112.797 174.238,112.687 174.240 C 112.577 174.241,111.499 175.188,110.290 176.345 M88.745 177.282 C 88.075 178.348,87.532 179.491,87.538 179.820 C 87.543 180.150,87.921 179.700,88.377 178.821 C 88.833 177.942,89.483 176.907,89.822 176.521 C 90.161 176.135,90.331 175.712,90.200 175.581 C 90.069 175.450,89.414 176.216,88.745 177.282 M69.930 176.062 C 69.930 176.193,70.289 176.804,70.727 177.419 C 71.165 178.034,71.693 178.961,71.900 179.479 C 72.107 179.996,72.288 180.166,72.302 179.855 C 72.316 179.545,71.871 178.511,71.312 177.558 C 70.371 175.952,69.930 175.475,69.930 176.062 M386.429 176.390 C 387.167 177.359,389.987 179.421,390.569 179.419 C 390.811 179.418,390.380 179.040,389.610 178.579 C 388.841 178.118,387.679 177.265,387.028 176.683 C 386.377 176.101,386.108 175.969,386.429 176.390 M396.204 178.648 C 395.544 179.071,395.210 179.417,395.460 179.418 C 395.711 179.420,396.340 179.067,396.859 178.635 C 398.047 177.645,397.761 177.651,396.204 178.648 M52.681 179.723 C 53.414 180.655,54.178 181.419,54.379 181.419 C 55.116 181.419,54.692 180.787,53.040 179.423 L 51.349 178.027 52.681 179.723 M391.209 179.820 C 391.209 180.040,391.928 180.220,392.807 180.220 C 393.686 180.220,394.406 180.040,394.406 179.820 C 394.406 179.600,393.686 179.421,392.807 179.421 C 391.928 179.421,391.209 179.600,391.209 179.820 M104.246 181.319 C 103.901 181.703,103.276 182.222,102.858 182.471 C 102.440 182.720,102.220 183.052,102.370 183.209 C 102.658 183.511,105.494 181.432,105.494 180.919 C 105.495 180.401,104.898 180.592,104.246 181.319 M55.145 181.732 C 55.145 182.219,59.132 185.557,59.397 185.291 C 59.513 185.176,59.187 184.698,58.675 184.230 C 56.490 182.236,56.119 181.919,55.644 181.652 C 55.370 181.498,55.145 181.534,55.145 181.732 M73.258 186.414 C 73.260 187.952,73.332 188.532,73.419 187.703 C 73.505 186.874,73.504 185.616,73.415 184.906 C 73.327 184.197,73.256 184.875,73.258 186.414 M86.445 186.414 C 86.447 187.952,86.519 188.532,86.605 187.703 C 86.692 186.874,86.690 185.616,86.602 184.906 C 86.514 184.197,86.443 184.875,86.445 186.414 M100.542 184.849 C 100.393 185.238,100.482 185.420,100.774 185.323 C 101.371 185.124,101.700 184.216,101.175 184.216 C 100.960 184.216,100.676 184.501,100.542 184.849 M59.141 186.613 C 59.141 187.053,59.321 187.413,59.540 187.413 C 59.760 187.413,59.940 187.053,59.940 186.613 C 59.940 186.174,59.760 185.814,59.540 185.814 C 59.321 185.814,59.141 186.174,59.141 186.613 M99.900 186.590 C 99.900 187.016,100.080 187.477,100.300 187.612 C 100.526 187.752,100.699 187.417,100.699 186.837 C 100.699 186.274,100.519 185.814,100.300 185.814 C 100.080 185.814,99.900 186.163,99.900 186.590 M58.741 188.811 C 58.741 189.141,58.921 189.411,59.141 189.411 C 59.361 189.411,59.540 189.141,59.540 188.811 C 59.540 188.482,59.361 188.212,59.141 188.212 C 58.921 188.212,58.741 188.482,58.741 188.811 M100.300 188.450 C 100.300 188.944,101.686 191.009,102.018 191.009 C 102.208 191.009,102.299 190.874,102.218 190.709 C 101.084 188.382,100.300 187.458,100.300 188.450 M57.742 190.609 C 57.104 191.315,57.095 191.409,57.666 191.409 C 58.022 191.409,58.506 191.049,58.741 190.609 C 58.977 190.170,59.011 189.810,58.817 189.810 C 58.624 189.810,58.140 190.170,57.742 190.609 M21.878 192.507 C 26.548 192.571,34.191 192.571,38.861 192.507 C 43.531 192.443,39.710 192.391,30.370 192.391 C 21.029 192.391,17.208 192.443,21.878 192.507 M287.746 192.774 C 288.040 193.068,292.486 193.162,292.768 192.880 C 292.918 192.730,291.812 192.607,290.310 192.607 C 288.808 192.607,287.654 192.682,287.746 192.774 M350.669 192.907 C 350.878 193.072,361.209 193.113,373.626 192.997 L 396.204 192.788 373.247 192.698 C 360.620 192.648,350.461 192.742,350.669 192.907 M397.186 194.529 C 397.683 195.255,398.195 195.744,398.324 195.615 C 398.453 195.486,398.047 194.891,397.421 194.294 L 396.284 193.207 397.186 194.529 M336.963 194.504 C 335.709 195.128,335.241 195.804,336.064 195.804 C 336.284 195.804,336.464 195.614,336.464 195.381 C 336.464 195.148,336.643 195.069,336.863 195.205 C 337.083 195.341,337.263 195.251,337.263 195.005 C 337.263 194.759,337.443 194.669,337.662 194.805 C 337.882 194.941,338.062 194.851,338.062 194.605 C 338.062 194.360,338.229 194.262,338.434 194.389 C 338.639 194.515,338.919 194.436,339.057 194.212 C 339.420 193.625,338.461 193.758,336.963 194.504 M300.899 194.629 C 300.899 194.862,301.079 194.941,301.299 194.805 C 301.518 194.669,301.698 194.759,301.698 195.005 C 301.698 195.251,301.878 195.341,302.098 195.205 C 302.318 195.069,302.498 195.159,302.498 195.405 C 302.498 195.650,302.677 195.740,302.897 195.604 C 303.117 195.469,303.297 195.548,303.297 195.781 C 303.297 196.013,303.551 196.204,303.863 196.204 C 304.174 196.204,304.498 196.411,304.582 196.663 C 304.666 196.916,304.996 197.036,305.315 196.929 C 305.677 196.808,305.071 196.263,303.696 195.474 C 301.314 194.107,300.899 193.982,300.899 194.629 M332.606 197.563 C 331.541 198.531,330.818 199.473,331.000 199.659 C 331.182 199.844,332.042 199.232,332.912 198.299 C 333.783 197.367,334.668 196.603,334.880 196.603 C 335.091 196.603,335.265 196.424,335.265 196.204 C 335.265 195.440,334.531 195.815,332.606 197.563 M306.094 197.727 C 306.094 198.276,308.466 200.359,308.758 200.067 C 308.909 199.915,308.518 199.254,307.888 198.597 C 306.758 197.417,306.094 197.095,306.094 197.727 M66.937 200.995 C 66.308 201.652,65.916 202.313,66.067 202.464 C 66.360 202.756,68.731 200.674,68.731 200.125 C 68.731 199.493,68.068 199.815,66.937 200.995 M91.109 200.130 C 91.109 200.672,93.081 202.357,93.373 202.065 C 93.522 201.916,93.221 201.346,92.706 200.798 C 91.762 199.793,91.109 199.520,91.109 200.130 M93.906 202.789 C 93.906 203.025,97.985 205.386,98.402 205.391 C 98.566 205.393,98.701 205.204,98.701 204.971 C 98.701 204.739,98.521 204.659,98.302 204.795 C 98.082 204.931,97.902 204.841,97.902 204.595 C 97.902 204.350,97.722 204.260,97.502 204.396 C 97.283 204.531,97.103 204.442,97.103 204.196 C 97.103 203.950,96.923 203.860,96.703 203.996 C 96.484 204.132,96.304 204.053,96.304 203.820 C 96.304 203.587,96.034 203.397,95.704 203.397 C 95.375 203.397,95.105 203.217,95.105 202.997 C 95.105 202.777,94.835 202.597,94.505 202.597 C 94.176 202.597,93.906 202.684,93.906 202.789 M64.336 203.397 C 64.336 203.616,64.143 203.796,63.908 203.796 C 63.672 203.796,63.208 204.068,62.876 204.399 C 62.545 204.731,62.108 204.900,61.906 204.775 C 61.704 204.650,61.538 204.739,61.538 204.971 C 61.538 205.594,61.881 205.504,63.801 204.379 C 65.649 203.296,65.894 202.997,64.935 202.997 C 64.605 202.997,64.336 203.177,64.336 203.397 M1.199 204.126 C 1.199 204.308,1.680 204.892,2.269 205.425 L 3.339 206.394 2.441 205.095 C 1.536 203.784,1.199 203.522,1.199 204.126 M14.657 206.893 C 20.850 206.955,31.100 206.955,37.434 206.893 C 43.768 206.831,38.701 206.780,26.174 206.780 C 13.646 206.780,8.464 206.831,14.657 206.893 M108.183 206.882 C 108.892 206.970,110.151 206.972,110.980 206.885 C 111.809 206.799,111.229 206.726,109.690 206.725 C 108.152 206.723,107.474 206.794,108.183 206.882 M161.139 207.293 L 192.208 207.398 192.208 251.759 L 192.208 296.120 190.410 297.388 C 188.397 298.806,187.952 299.736,189.810 298.638 C 190.470 298.248,191.009 297.801,191.009 297.643 C 191.009 297.485,191.369 297.242,191.808 297.103 C 192.601 296.851,192.607 296.498,192.607 251.921 L 192.607 206.993 161.339 207.090 L 130.070 207.188 161.139 207.293 M207.090 238.861 L 207.188 270.729 207.293 239.061 L 207.397 207.393 251.759 207.393 L 296.120 207.393 297.388 209.191 C 298.806 211.203,299.736 211.649,298.638 209.790 C 298.248 209.131,297.801 208.591,297.643 208.591 C 297.485 208.591,297.242 208.232,297.103 207.792 C 296.851 206.999,296.498 206.993,251.921 206.993 L 206.993 206.993 207.090 238.861 M360.566 207.292 C 365.362 207.356,373.094 207.356,377.749 207.292 C 382.405 207.228,378.482 207.176,369.031 207.176 C 359.580 207.176,355.771 207.229,360.566 207.292 M341.068 208.839 C 340.713 209.195,340.525 209.589,340.651 209.716 C 340.778 209.842,341.276 209.551,341.758 209.069 C 342.241 208.586,342.428 208.192,342.175 208.192 C 341.922 208.192,341.424 208.483,341.068 208.839 M326.167 211.389 C 326.167 212.158,326.249 212.473,326.349 212.088 C 326.450 211.703,326.450 211.074,326.349 210.689 C 326.249 210.305,326.167 210.619,326.167 211.389 M298.901 212.586 C 298.901 214.007,297.031 216.242,294.201 218.202 C 293.160 218.923,291.885 220.028,291.369 220.657 C 290.410 221.825,295.562 218.369,297.640 216.450 C 299.336 214.884,300.483 211.389,299.301 211.389 C 299.081 211.389,298.901 211.928,298.901 212.586 M313.007 213.387 C 313.007 214.595,313.082 215.090,313.173 214.486 C 313.265 213.881,313.265 212.892,313.173 212.288 C 313.082 211.683,313.007 212.178,313.007 213.387 M339.660 213.128 C 339.660 214.106,341.517 216.458,341.948 216.027 C 342.084 215.892,341.804 215.366,341.327 214.858 C 340.850 214.350,340.460 213.541,340.460 213.061 C 340.460 212.581,340.280 212.188,340.060 212.188 C 339.840 212.188,339.660 212.611,339.660 213.128 M342.458 216.561 C 342.458 217.018,344.131 218.240,344.396 217.975 C 344.634 217.737,343.247 216.184,342.795 216.184 C 342.609 216.184,342.458 216.353,342.458 216.561 M344.855 218.515 C 344.855 218.698,345.619 219.459,346.553 220.206 L 348.252 221.565 346.919 219.873 C 345.670 218.287,344.855 217.751,344.855 218.515 M5.195 219.780 C 5.195 220.000,5.914 220.180,6.793 220.180 C 7.672 220.180,8.392 220.000,8.392 219.780 C 8.392 219.560,7.672 219.381,6.793 219.381 C 5.914 219.381,5.195 219.560,5.195 219.780 M327.298 219.745 C 327.266 220.456,329.268 223.912,329.549 223.631 C 329.664 223.516,329.379 222.892,328.917 222.243 C 328.455 221.594,327.908 220.639,327.700 220.122 C 327.493 219.604,327.312 219.435,327.298 219.745 M310.917 221.499 C 310.390 222.414,309.063 224.111,307.968 225.268 C 306.874 226.426,306.169 227.373,306.402 227.373 C 307.318 227.373,312.550 220.509,312.030 219.989 C 311.945 219.904,311.444 220.583,310.917 221.499 M2.742 221.003 L 1.798 221.826 2.997 221.124 C 4.575 220.200,4.598 220.180,4.107 220.180 C 3.875 220.180,3.260 220.550,2.742 221.003 M9.990 221.021 C 10.759 221.482,11.921 222.336,12.572 222.918 C 13.223 223.500,13.493 223.631,13.172 223.210 C 12.433 222.242,9.613 220.179,9.031 220.181 C 8.789 220.182,9.221 220.560,9.990 221.021 M351.627 225.375 C 354.346 228.723,354.905 229.245,353.265 226.905 C 352.546 225.878,351.409 224.530,350.738 223.908 C 350.068 223.286,350.468 223.946,351.627 225.375 M330.070 224.416 C 330.070 224.934,332.791 227.582,333.054 227.319 C 333.163 227.210,332.536 226.422,331.661 225.567 C 330.786 224.713,330.070 224.195,330.070 224.416 M284.818 228.272 C 283.931 229.627,282.046 233.429,282.191 233.572 C 282.261 233.641,283.070 232.274,283.989 230.535 C 285.638 227.416,285.967 226.516,284.818 228.272 M333.666 227.862 C 333.666 228.187,338.532 231.831,338.717 231.645 C 338.817 231.546,338.215 230.931,337.381 230.279 C 335.518 228.823,333.666 227.618,333.666 227.862 M355.940 231.634 C 356.767 233.208,357.500 234.440,357.569 234.371 C 357.746 234.196,355.846 230.543,355.073 229.570 C 354.724 229.131,355.114 230.059,355.940 231.634 M301.099 230.939 C 300.000 231.777,298.744 232.890,298.308 233.414 C 297.576 234.292,297.607 234.285,298.708 233.330 C 299.363 232.760,300.754 231.696,301.798 230.964 C 302.842 230.233,303.696 229.575,303.696 229.503 C 303.696 229.126,302.900 229.567,301.099 230.939 M281.365 235.404 C 281.120 236.107,280.932 236.881,280.947 237.123 C 280.963 237.364,281.233 236.859,281.548 235.999 C 281.863 235.139,282.051 234.366,281.966 234.280 C 281.881 234.195,281.610 234.701,281.365 235.404 M280.012 239.602 C 279.851 239.762,279.720 240.169,279.720 240.506 C 279.720 240.956,279.838 241.001,280.165 240.674 C 280.409 240.430,280.540 240.023,280.456 239.770 C 280.372 239.517,280.172 239.442,280.012 239.602 M294.334 240.388 C 294.187 240.974,294.144 241.530,294.238 241.624 C 294.332 241.718,294.530 241.316,294.677 240.731 C 294.824 240.145,294.867 239.589,294.773 239.495 C 294.679 239.400,294.481 239.803,294.334 240.388 M279.321 242.358 C 279.321 242.687,279.500 242.957,279.720 242.957 C 279.940 242.957,280.120 242.687,280.120 242.358 C 280.120 242.028,279.940 241.758,279.720 241.758 C 279.500 241.758,279.321 242.028,279.321 242.358 M359.640 245.954 C 359.640 246.503,359.820 246.953,360.040 246.953 C 360.260 246.953,360.440 246.503,360.440 245.954 C 360.440 245.405,360.260 244.955,360.040 244.955 C 359.820 244.955,359.640 245.405,359.640 245.954 M293.399 246.553 C 293.399 247.323,293.482 247.637,293.582 247.253 C 293.683 246.868,293.683 246.239,293.582 245.854 C 293.482 245.470,293.399 245.784,293.399 246.553 M279.321 250.549 C 279.321 250.989,279.500 251.349,279.720 251.349 C 279.940 251.349,280.120 250.989,280.120 250.549 C 280.120 250.110,279.940 249.750,279.720 249.750 C 279.500 249.750,279.321 250.110,279.321 250.549 M279.720 252.747 C 279.720 253.077,279.900 253.347,280.120 253.347 C 280.340 253.347,280.519 253.077,280.519 252.747 C 280.519 252.418,280.340 252.148,280.120 252.148 C 279.900 252.148,279.720 252.418,279.720 252.747 M343.540 254.438 C 342.927 255.432,342.507 256.326,342.606 256.426 C 342.705 256.525,343.274 255.775,343.869 254.759 C 345.277 252.357,344.995 252.082,343.540 254.438 M294.905 253.497 C 294.905 253.666,295.363 254.585,295.922 255.539 C 297.012 257.399,298.102 258.537,298.102 257.815 C 298.102 257.581,297.904 257.268,297.663 257.119 C 297.422 256.970,296.703 256.025,296.065 255.019 C 295.427 254.013,294.905 253.328,294.905 253.497 M340.859 257.942 C 340.345 258.490,340.013 259.028,340.123 259.138 C 340.233 259.248,340.744 258.889,341.259 258.342 C 341.773 257.794,342.104 257.256,341.994 257.146 C 341.885 257.036,341.374 257.394,340.859 257.942 M282.690 259.940 C 283.593 262.657,291.041 271.727,292.372 271.729 C 292.556 271.729,291.089 270.061,289.111 268.022 C 287.133 265.982,284.819 263.150,283.970 261.727 C 283.120 260.305,282.544 259.500,282.690 259.940 M299.700 259.643 C 299.700 260.199,301.293 261.331,303.983 262.686 C 307.021 264.216,307.132 263.955,304.131 262.338 C 302.722 261.578,301.149 260.562,300.635 260.079 C 300.121 259.596,299.700 259.400,299.700 259.643 M338.222 260.158 C 337.784 260.595,336.086 261.664,334.448 262.534 C 330.806 264.467,331.055 264.656,334.775 262.782 C 337.669 261.325,339.596 259.945,339.239 259.586 C 339.116 259.463,338.659 259.721,338.222 260.158 M356.444 259.658 C 356.444 259.906,355.449 261.599,354.234 263.421 C 352.638 265.812,352.413 266.289,353.422 265.135 C 355.033 263.294,357.036 259.800,356.683 259.447 C 356.551 259.315,356.444 259.410,356.444 259.658 M347.296 270.733 C 346.331 271.500,345.717 272.128,345.931 272.128 C 346.326 272.128,349.618 269.375,349.251 269.351 C 349.141 269.344,348.261 269.966,347.296 270.733 M293.307 272.318 C 293.307 272.674,299.482 276.124,300.092 276.108 C 300.426 276.100,300.129 275.845,299.433 275.542 C 298.736 275.239,297.159 274.346,295.928 273.559 C 293.712 272.142,293.307 271.950,293.307 272.318 M342.060 274.164 C 340.632 275.022,339.626 275.724,339.824 275.724 C 340.270 275.724,345.255 272.956,345.255 272.708 C 345.255 272.340,344.591 272.642,342.060 274.164 M148.252 279.720 C 148.252 279.940,148.601 280.120,149.027 280.120 C 149.454 280.120,149.914 279.940,150.050 279.720 C 150.190 279.494,149.854 279.321,149.274 279.321 C 148.712 279.321,148.252 279.500,148.252 279.720 M156.444 279.720 C 156.579 279.940,156.950 280.120,157.266 280.120 C 157.583 280.120,157.842 279.940,157.842 279.720 C 157.842 279.500,157.472 279.321,157.019 279.321 C 156.567 279.321,156.308 279.500,156.444 279.720 M318.681 279.720 C 318.817 279.940,319.357 280.120,319.880 280.120 C 320.404 280.120,320.943 279.940,321.079 279.720 C 321.226 279.482,320.742 279.321,319.880 279.321 C 319.018 279.321,318.534 279.482,318.681 279.720 M165.867 282.270 C 166.275 282.641,170.230 284.508,170.230 284.329 C 170.230 284.104,166.414 282.118,165.981 282.118 C 165.827 282.118,165.776 282.186,165.867 282.270 M138.661 283.117 C 138.112 283.431,137.842 283.688,138.062 283.688 C 138.282 283.688,138.911 283.431,139.461 283.117 C 140.010 282.803,140.280 282.546,140.060 282.546 C 139.840 282.546,139.211 282.803,138.661 283.117 M136.040 284.703 C 135.614 285.025,135.445 285.289,135.664 285.289 C 135.884 285.289,136.413 285.025,136.840 284.703 C 137.266 284.380,137.435 284.116,137.216 284.116 C 136.996 284.116,136.467 284.380,136.040 284.703 M170.629 284.640 C 170.629 284.733,171.394 285.313,172.328 285.929 C 173.262 286.545,173.815 286.794,173.557 286.482 C 173.061 285.881,170.629 284.351,170.629 284.640 M130.876 288.904 C 130.022 289.779,129.412 290.584,129.521 290.694 C 129.631 290.803,130.511 290.087,131.477 289.103 C 132.443 288.118,133.053 287.313,132.832 287.313 C 132.611 287.313,131.731 288.029,130.876 288.904 M206.728 290.110 C 206.728 291.758,206.798 292.433,206.885 291.608 C 206.971 290.784,206.971 289.436,206.885 288.611 C 206.798 287.787,206.728 288.462,206.728 290.110 M178.241 291.204 C 178.749 291.915,179.257 292.405,179.371 292.291 C 179.485 292.177,179.069 291.595,178.448 290.997 L 177.318 289.910 178.241 291.204 M179.833 293.007 C 179.851 293.674,181.376 295.480,181.672 295.185 C 181.894 294.962,180.354 292.507,179.993 292.507 C 179.898 292.507,179.826 292.732,179.833 293.007 M125.305 296.359 C 124.300 298.078,123.484 299.757,123.492 300.092 C 123.501 300.426,123.756 300.129,124.059 299.433 C 124.362 298.736,125.264 297.143,126.064 295.892 C 126.864 294.642,127.432 293.533,127.326 293.427 C 127.221 293.321,126.311 294.641,125.305 296.359 M152.348 293.582 C 152.732 293.683,153.362 293.683,153.746 293.582 C 154.131 293.482,153.816 293.399,153.047 293.399 C 152.278 293.399,151.963 293.482,152.348 293.582 M158.442 294.505 C 158.881 294.694,159.510 294.849,159.840 294.849 C 160.218 294.849,160.144 294.722,159.640 294.505 C 159.201 294.317,158.571 294.162,158.242 294.162 C 157.864 294.162,157.938 294.289,158.442 294.505 M142.817 296.852 C 140.183 298.791,135.864 304.646,135.864 306.279 C 135.864 306.498,136.656 305.323,137.625 303.669 C 138.685 301.858,140.440 299.675,142.035 298.183 C 144.967 295.440,145.145 295.138,142.817 296.852 M182.167 296.404 C 182.644 297.289,184.155 298.667,185.288 299.251 C 186.375 299.810,188.349 299.847,188.012 299.301 C 187.876 299.081,187.322 298.901,186.781 298.901 C 186.188 298.901,185.107 298.266,184.062 297.303 C 182.200 295.586,181.564 295.284,182.167 296.404 M168.418 301.598 C 170.109 303.851,171.578 305.694,171.684 305.694 C 172.130 305.694,167.538 299.459,166.239 298.302 C 165.746 297.862,166.727 299.346,168.418 301.598 M204.675 301.199 C 204.819 301.744,204.149 303.297,203.769 303.297 C 203.564 303.297,203.397 303.551,203.397 303.863 C 203.397 304.174,203.190 304.498,202.937 304.582 C 202.684 304.666,202.565 304.996,202.671 305.315 C 202.793 305.677,203.337 305.071,204.126 303.696 C 205.482 301.333,205.617 300.899,204.995 300.899 C 204.775 300.899,204.631 301.034,204.675 301.199 M172.228 306.362 C 172.228 307.273,178.408 312.088,179.577 312.088 C 179.797 312.088,179.087 311.532,178.000 310.852 C 176.913 310.172,175.170 308.785,174.126 307.770 C 173.082 306.755,172.228 306.121,172.228 306.362 M200.599 307.293 C 200.130 307.952,199.906 308.492,200.103 308.492 C 200.511 308.492,202.198 306.782,202.198 306.368 C 202.198 305.717,201.388 306.186,200.599 307.293 M185.115 313.173 C 185.719 313.265,186.708 313.265,187.313 313.173 C 187.917 313.082,187.423 313.007,186.214 313.007 C 185.005 313.007,184.510 313.082,185.115 313.173 M134.014 320.080 C 134.014 322.388,134.080 323.332,134.161 322.178 C 134.241 321.024,134.241 319.136,134.161 317.982 C 134.080 316.828,134.014 317.772,134.014 320.080 M119.747 317.949 C 119.327 318.369,119.437 321.604,119.880 321.878 C 120.128 322.031,120.280 321.283,120.280 319.904 C 120.280 317.658,120.228 317.468,119.747 317.949 M187.113 326.349 C 187.498 326.450,188.127 326.450,188.511 326.349 C 188.896 326.249,188.581 326.167,187.812 326.167 C 187.043 326.167,186.728 326.249,187.113 326.349 M177.495 328.315 C 176.546 328.883,175.861 329.441,175.973 329.553 C 176.086 329.666,176.709 329.379,177.358 328.917 C 178.007 328.455,178.961 327.908,179.479 327.700 C 179.996 327.493,180.150 327.314,179.820 327.302 C 179.491 327.290,178.444 327.746,177.495 328.315 M399.298 354.156 L 399.201 380.040 397.759 382.927 C 396.965 384.515,395.919 386.354,395.433 387.013 C 394.093 388.831,393.815 389.565,394.980 388.212 C 395.548 387.552,396.821 385.453,397.809 383.547 L 399.606 380.082 399.500 354.177 L 399.395 328.272 399.298 354.156 M173.369 331.568 C 171.450 333.594,169.672 336.039,169.929 336.296 C 170.044 336.411,170.526 335.879,170.999 335.114 C 171.471 334.349,171.986 333.662,172.143 333.588 C 172.773 333.289,175.559 330.070,175.187 330.070 C 174.967 330.070,174.149 330.744,173.369 331.568 M199.800 331.194 C 199.800 331.743,202.172 333.825,202.464 333.533 C 202.615 333.382,202.224 332.721,201.594 332.064 C 200.464 330.884,199.800 330.562,199.800 331.194 M136.265 333.843 C 136.258 336.203,143.900 344.488,146.047 344.448 C 146.271 344.444,145.644 343.924,144.655 343.292 C 142.212 341.731,139.422 338.753,137.697 335.864 C 136.910 334.545,136.265 333.636,136.265 333.843 M202.852 334.665 C 202.979 334.995,203.243 335.265,203.439 335.265 C 203.636 335.265,203.796 335.534,203.796 335.864 C 203.796 336.194,203.987 336.464,204.219 336.464 C 204.452 336.464,204.531 336.643,204.396 336.863 C 204.260 337.083,204.350 337.263,204.595 337.263 C 204.841 337.263,204.931 337.443,204.795 337.662 C 204.659 337.882,204.749 338.062,204.995 338.062 C 205.241 338.062,205.331 338.242,205.195 338.462 C 205.059 338.681,205.138 338.861,205.371 338.861 C 206.014 338.861,205.893 338.447,204.584 336.164 C 203.487 334.252,202.299 333.224,202.852 334.665 M168.631 337.463 C 168.349 337.803,168.208 338.171,168.318 338.281 C 168.428 338.391,168.749 338.202,169.031 337.862 C 169.313 337.522,169.455 337.154,169.345 337.044 C 169.235 336.934,168.914 337.122,168.631 337.463 M0.093 358.578 L -0.000 380.093 1.794 383.553 C 2.781 385.456,4.053 387.552,4.620 388.212 C 5.785 389.564,5.508 388.831,4.168 387.013 C 3.682 386.354,2.681 384.645,1.942 383.217 L 0.599 380.619 0.393 358.841 L 0.186 337.063 0.093 358.578 M123.912 339.860 C 123.912 340.080,124.346 341.069,124.875 342.058 C 125.405 343.047,125.838 343.676,125.838 343.457 C 125.838 343.237,125.405 342.248,124.875 341.259 C 124.346 340.270,123.912 339.640,123.912 339.860 M185.814 340.060 C 185.814 340.280,186.174 340.460,186.613 340.460 C 187.053 340.460,187.413 340.280,187.413 340.060 C 187.413 339.840,187.053 339.660,186.613 339.660 C 186.174 339.660,185.814 339.840,185.814 340.060 M183.393 341.635 C 182.473 342.546,181.835 343.406,181.975 343.547 C 182.115 343.687,182.976 343.049,183.887 342.128 C 184.798 341.208,185.436 340.348,185.305 340.217 C 185.174 340.085,184.313 340.724,183.393 341.635 M189.810 340.797 C 189.810 340.983,190.170 341.460,190.609 341.858 C 191.548 342.707,191.703 342.009,190.781 341.087 C 190.074 340.381,189.810 340.302,189.810 340.797 M164.036 342.308 C 163.317 342.919,163.171 343.162,163.669 342.914 C 164.402 342.551,165.776 341.235,165.384 341.273 C 165.302 341.281,164.695 341.747,164.036 342.308 M126.274 344.317 C 126.274 344.739,128.629 348.052,128.929 348.052 C 129.165 348.052,128.819 347.475,127.395 345.494 C 126.778 344.637,126.274 344.107,126.274 344.317 M180.067 345.654 C 179.486 346.533,179.112 347.253,179.238 347.253 C 179.567 347.253,181.818 344.735,181.818 344.366 C 181.818 343.611,181.042 344.182,180.067 345.654 M206.725 349.051 C 206.726 350.589,206.799 351.170,206.885 350.341 C 206.972 349.512,206.970 348.253,206.882 347.544 C 206.794 346.834,206.723 347.512,206.725 349.051 M176.516 349.809 C 175.467 350.885,174.669 351.825,174.742 351.898 C 174.814 351.970,175.751 351.139,176.823 350.050 C 177.896 348.961,178.694 348.021,178.597 347.961 C 178.501 347.901,177.564 348.733,176.516 349.809 M129.471 348.687 C 129.471 349.206,132.589 352.259,132.851 351.997 C 132.961 351.888,132.245 351.008,131.260 350.042 C 130.276 349.076,129.471 348.466,129.471 348.687 M172.605 353.174 C 171.824 353.764,170.745 354.568,170.208 354.962 C 169.268 355.652,169.282 355.652,170.560 354.962 C 171.823 354.281,174.649 352.068,174.226 352.092 C 174.116 352.098,173.387 352.585,172.605 353.174 M134.368 353.335 C 135.958 354.699,139.843 356.994,140.110 356.727 C 140.235 356.602,139.556 356.107,138.600 355.627 C 137.645 355.147,136.324 354.357,135.664 353.872 C 133.905 352.578,133.095 352.242,134.368 353.335 M192.390 369.830 C 192.390 378.841,192.443 382.584,192.507 378.149 C 192.571 373.713,192.571 366.340,192.507 361.765 C 192.443 357.190,192.390 360.819,192.390 369.830 M167.033 356.643 C 166.044 357.173,165.377 357.614,165.550 357.624 C 165.975 357.649,169.031 356.078,169.031 355.836 C 169.031 355.571,169.048 355.565,167.033 356.643 M13.743 361.638 C 13.743 364.605,13.806 365.819,13.883 364.336 C 13.960 362.852,13.960 360.425,13.883 358.941 C 13.806 357.458,13.743 358.671,13.743 361.638 M385.767 363.437 C 385.768 366.074,385.832 367.101,385.911 365.719 C 385.989 364.336,385.988 362.179,385.909 360.923 C 385.830 359.668,385.766 360.799,385.767 363.437 M148.252 359.640 C 148.252 359.879,149.784 360.040,152.048 360.040 C 154.312 360.040,155.844 359.879,155.844 359.640 C 155.844 359.402,154.312 359.241,152.048 359.241 C 149.784 359.241,148.252 359.402,148.252 359.640 M14.079 375.624 C 14.079 376.394,14.161 376.708,14.261 376.324 C 14.362 375.939,14.362 375.310,14.261 374.925 C 14.161 374.540,14.079 374.855,14.079 375.624 M207.127 377.622 C 207.127 379.271,207.198 379.945,207.284 379.121 C 207.370 378.297,207.370 376.948,207.284 376.124 C 207.198 375.300,207.127 375.974,207.127 377.622 M14.414 377.423 C 14.414 377.642,14.671 378.272,14.985 378.821 C 15.299 379.371,15.556 379.640,15.556 379.421 C 15.556 379.201,15.299 378.571,14.985 378.022 C 14.671 377.473,14.414 377.203,14.414 377.423 M384.480 378.239 C 383.811 379.708,383.939 380.022,384.663 378.686 C 385.001 378.062,385.203 377.477,385.111 377.386 C 385.020 377.294,384.736 377.678,384.480 378.239 M17.383 382.018 C 18.241 382.897,19.033 383.616,19.143 383.616 C 19.253 383.616,18.641 382.897,17.782 382.018 C 16.924 381.139,16.132 380.420,16.022 380.420 C 15.912 380.420,16.524 381.139,17.383 382.018 M381.799 382.118 L 380.220 383.816 381.918 382.237 C 383.497 380.768,383.800 380.420,383.498 380.420 C 383.432 380.420,382.668 381.184,381.799 382.118 M19.580 383.806 C 19.580 384.040,21.817 385.215,22.258 385.213 C 22.434 385.212,21.989 384.853,21.269 384.414 C 19.931 383.598,19.580 383.472,19.580 383.806 M378.022 384.615 C 377.473 384.929,377.203 385.186,377.423 385.186 C 377.642 385.186,378.272 384.929,378.821 384.615 C 379.371 384.301,379.640 384.044,379.421 384.044 C 379.201 384.044,378.571 384.301,378.022 384.615 M24.076 385.490 C 24.461 385.591,25.090 385.591,25.475 385.490 C 25.859 385.390,25.544 385.307,24.775 385.307 C 24.006 385.307,23.691 385.390,24.076 385.490 M34.081 385.910 C 35.352 385.990,37.330 385.989,38.476 385.908 C 39.622 385.828,38.581 385.763,36.164 385.764 C 33.746 385.765,32.809 385.831,34.081 385.910 M359.540 385.910 C 360.914 385.988,363.162 385.988,364.535 385.910 C 365.909 385.832,364.785 385.768,362.038 385.768 C 359.291 385.768,358.167 385.832,359.540 385.910 M222.504 387.113 C 221.087 388.636,220.022 390.385,220.325 390.688 C 220.465 390.828,220.579 390.749,220.579 390.512 C 220.579 390.275,221.303 389.167,222.187 388.048 C 223.954 385.812,224.092 385.405,222.504 387.113 M5.994 389.905 C 5.994 391.063,12.232 395.915,16.447 398.034 L 19.563 399.600 45.046 399.506 L 70.529 399.412 44.755 399.207 L 18.981 399.001 16.783 397.847 C 13.447 396.095,10.416 393.929,8.092 391.636 C 6.938 390.497,5.994 389.718,5.994 389.905 M392.639 390.505 C 392.291 391.036,390.793 392.434,389.310 393.612 C 385.844 396.366,385.523 396.683,387.139 395.761 C 388.956 394.724,393.869 390.163,393.538 389.820 C 393.391 389.666,392.986 389.975,392.639 390.505 M219.453 392.807 C 219.465 393.686,219.633 394.406,219.827 394.406 C 220.021 394.406,220.180 393.686,220.180 392.807 C 220.180 391.928,220.011 391.209,219.805 391.209 C 219.599 391.209,219.441 391.928,219.453 392.807 M220.180 395.494 C 220.180 395.726,220.550 396.340,221.003 396.859 L 221.826 397.802 221.124 396.603 C 220.200 395.026,220.180 395.002,220.180 395.494 M383.017 397.722 L 380.619 399.001 359.041 399.208 L 337.463 399.414 358.751 399.507 L 380.040 399.600 382.827 398.197 C 384.360 397.425,385.614 396.706,385.614 396.598 C 385.614 396.328,385.686 396.297,383.017 397.722 M204.196 397.835 C 203.638 398.145,203.462 398.387,203.796 398.383 C 204.126 398.379,204.745 398.112,205.171 397.789 C 206.133 397.062,205.539 397.090,204.196 397.835 M190.916 399.490 C 191.634 399.579,192.713 399.578,193.314 399.486 C 193.914 399.395,193.327 399.322,192.008 399.325 C 190.689 399.327,190.198 399.401,190.916 399.490 " stroke="none" fill="#c9c9c9" fill-rule="evenodd"></path><path id="path1" d="M60.939 0.400 C 15.784 0.662,19.371 0.417,14.132 3.600 C 8.875 6.794,4.774 11.248,2.020 16.757 L 0.508 19.780 0.300 110.889 L 0.091 201.998 1.944 204.079 L 3.796 206.161 27.972 206.148 C 52.730 206.136,56.823 206.059,58.042 205.582 C 58.427 205.432,58.999 205.408,59.315 205.529 C 59.630 205.650,59.945 205.625,60.014 205.472 C 60.083 205.320,61.197 204.666,62.489 204.020 C 70.913 199.807,75.252 187.948,71.406 179.648 C 69.845 176.279,68.097 174.323,63.429 170.720 C 48.416 159.130,49.784 143.655,66.533 135.603 L 69.730 134.066 79.920 134.066 L 90.110 134.066 93.198 135.544 C 102.427 139.960,105.902 144.482,106.164 152.414 C 106.435 160.615,104.158 164.757,95.884 171.118 C 86.671 178.201,84.613 186.566,89.645 196.479 C 91.573 200.276,98.179 205.395,101.153 205.395 C 101.563 205.395,101.898 205.529,101.898 205.694 C 101.898 205.859,102.572 206.013,103.397 206.036 C 104.221 206.060,108.941 206.196,113.886 206.340 C 118.831 206.483,138.656 206.584,157.942 206.563 L 193.007 206.526 193.007 251.629 L 193.007 296.732 190.754 298.216 C 186.743 300.857,184.653 300.149,180.717 294.816 C 174.696 286.660,165.620 281.048,157.143 280.242 C 155.769 280.111,154.645 279.850,154.645 279.662 C 154.645 279.183,152.349 279.234,152.048 279.720 C 151.912 279.940,151.130 280.120,150.310 280.120 C 139.077 280.120,125.345 292.759,121.874 306.294 C 110.826 349.375,154.372 378.215,180.306 344.992 C 182.067 342.737,183.930 340.615,184.447 340.276 C 185.512 339.578,188.212 339.440,188.212 340.084 C 188.212 340.316,188.402 340.389,188.636 340.245 C 189.538 339.687,191.347 340.921,191.993 342.536 C 192.758 344.447,192.685 342.440,192.871 366.762 L 193.022 386.470 110.197 386.276 C 20.890 386.066,22.822 386.093,20.833 385.052 C 18.877 384.027,16.080 381.326,14.911 379.330 C 13.306 376.592,13.420 383.155,13.275 284.393 L 13.187 224.131 11.888 222.912 C 8.028 219.290,4.172 219.354,0.941 223.094 L 0.083 224.086 0.295 301.953 L 0.508 379.820 1.700 382.218 C 4.741 388.336,9.921 393.715,16.018 397.086 L 19.780 399.166 106.693 399.226 C 209.985 399.296,204.693 399.511,205.595 395.205 C 205.756 394.436,205.966 393.673,206.062 393.511 C 206.669 392.478,206.824 372.083,206.353 355.045 C 206.195 349.331,206.050 343.891,206.030 342.957 C 206.010 342.023,205.859 341.259,205.694 341.259 C 205.529 341.259,205.395 340.879,205.395 340.416 C 205.395 337.630,200.352 331.510,196.274 329.346 C 192.361 327.270,184.304 325.853,183.124 327.033 C 182.992 327.165,182.599 327.274,182.251 327.277 C 179.440 327.294,174.726 330.918,170.839 336.051 C 159.370 351.196,143.608 349.884,135.652 333.122 C 132.756 327.021,132.781 312.369,135.697 306.142 C 139.914 297.136,147.674 291.795,154.618 293.117 C 155.402 293.266,156.494 293.468,157.043 293.566 C 162.050 294.458,166.196 297.155,169.545 301.698 C 177.778 312.868,185.726 315.379,196.167 310.109 C 200.248 308.048,205.395 301.545,205.395 298.448 C 205.395 298.038,205.529 297.702,205.694 297.702 C 205.859 297.702,206.012 297.028,206.033 296.204 C 206.054 295.380,206.187 290.839,206.328 286.114 C 206.468 281.389,206.571 261.563,206.556 242.058 L 206.530 206.593 251.631 206.593 L 296.732 206.593 298.216 208.847 C 300.873 212.881,300.155 214.947,294.705 218.958 C 287.655 224.146,281.797 232.863,280.662 239.853 C 280.529 240.673,280.289 241.264,280.130 241.165 C 279.971 241.067,279.929 241.905,280.036 243.029 C 280.178 244.498,280.105 244.993,279.777 244.790 C 279.460 244.595,279.321 245.073,279.321 246.354 C 279.321 247.629,279.461 248.112,279.774 247.919 C 280.101 247.717,280.175 248.277,280.040 249.910 C 279.936 251.160,279.976 251.981,280.128 251.735 C 280.280 251.489,280.506 251.908,280.629 252.667 C 284.672 277.584,324.733 288.251,347.090 270.364 C 365.562 255.585,363.638 234.827,342.109 216.607 L 339.562 214.452 339.773 212.421 C 340.171 208.581,341.814 207.032,345.582 206.943 C 346.391 206.924,355.923 206.834,366.764 206.743 L 386.474 206.578 386.275 289.603 C 386.166 335.266,386.002 373.706,385.911 375.025 C 385.657 378.699,383.617 381.797,379.643 384.543 C 377.297 386.164,385.191 385.999,299.101 386.229 C 216.780 386.448,224.091 386.220,222.095 388.634 C 219.567 391.690,219.654 394.712,222.361 397.874 L 223.760 399.509 301.790 399.315 L 379.820 399.121 383.616 397.071 C 388.994 394.168,394.613 388.543,397.258 383.414 L 399.111 379.820 399.306 288.709 L 399.500 197.598 397.652 195.517 L 395.804 193.437 371.628 193.472 C 346.094 193.508,342.681 193.570,341.558 194.014 C 341.174 194.167,340.601 194.192,340.286 194.071 C 339.970 193.950,339.655 193.976,339.586 194.128 C 339.517 194.281,338.406 194.933,337.116 195.578 C 332.833 197.720,329.061 202.484,327.536 207.678 C 326.912 209.803,326.544 215.988,327.014 216.458 C 327.156 216.600,327.274 217.001,327.277 217.349 C 327.294 220.172,330.833 224.760,336.171 228.881 C 356.007 244.194,345.654 266.569,318.994 266.006 C 302.425 265.656,291.091 256.344,293.152 244.775 C 293.311 243.885,293.474 242.887,293.515 242.557 C 294.084 237.953,297.228 233.367,302.498 229.453 C 312.858 221.759,315.297 213.228,309.987 203.263 C 307.787 199.136,301.506 194.206,298.448 194.206 C 298.038 194.206,297.702 194.051,297.702 193.862 C 297.702 193.672,297.256 193.603,296.710 193.707 C 296.164 193.811,295.405 193.777,295.024 193.631 C 293.837 193.175,278.852 193.009,242.058 193.042 L 206.593 193.074 206.593 148.155 L 206.593 103.236 207.493 102.420 C 211.787 98.523,214.722 99.139,218.900 104.816 C 241.165 135.072,281.418 116.319,279.142 76.750 C 278.007 57.007,264.177 40.360,248.911 40.360 C 248.080 40.360,247.289 40.180,247.153 39.960 C 246.852 39.474,244.955 39.424,244.955 39.902 C 244.955 40.090,243.741 40.349,242.258 40.478 C 233.479 41.239,227.102 45.458,216.815 57.311 L 214.448 60.038 212.419 59.827 C 209.454 59.520,208.331 58.871,207.600 57.046 C 206.849 55.169,206.926 57.299,206.730 32.836 L 206.571 13.124 289.400 13.344 C 389.631 13.610,378.446 13.087,382.706 17.708 C 386.611 21.945,386.169 10.357,386.320 112.391 L 386.414 175.432 387.512 176.576 C 390.943 180.147,394.832 180.283,398.273 176.952 L 399.544 175.722 399.325 97.751 L 399.105 19.780 397.055 16.022 C 393.741 9.946,388.377 4.767,382.218 1.696 L 379.820 0.501 288.694 0.317 L 197.567 0.133 195.506 1.979 L 193.445 3.825 193.479 27.987 C 193.514 53.588,193.574 56.928,194.014 58.042 C 194.167 58.427,194.192 58.999,194.071 59.315 C 193.950 59.630,193.976 59.945,194.128 60.014 C 194.281 60.083,194.933 61.195,195.578 62.484 C 198.602 68.531,206.069 72.892,213.279 72.822 C 219.545 72.762,223.555 70.367,228.758 63.579 C 240.310 48.508,256.263 49.844,263.972 66.529 C 266.384 71.749,266.835 86.982,264.721 91.794 C 260.148 102.203,255.697 105.755,246.753 106.130 C 239.404 106.439,234.300 103.734,229.344 96.903 C 222.060 86.864,213.131 84.383,203.218 89.643 C 199.139 91.808,194.206 98.108,194.206 101.153 C 194.206 101.563,194.071 101.898,193.906 101.898 C 193.741 101.898,193.586 102.572,193.562 103.397 C 193.146 117.411,193.055 127.246,193.062 157.343 L 193.071 193.007 147.984 193.006 L 102.897 193.005 101.566 191.053 C 98.665 186.796,99.341 184.835,105.288 180.243 C 119.430 169.326,123.493 152.744,115.527 138.462 C 112.722 133.433,109.773 130.698,101.099 125.085 C 92.862 119.754,74.390 118.761,63.266 123.051 C 51.057 127.759,40.360 140.255,40.360 149.808 C 40.360 150.490,40.222 151.049,40.053 151.049 C 39.885 151.049,39.747 152.128,39.747 153.447 C 39.747 154.765,39.885 155.844,40.053 155.844 C 40.222 155.844,40.360 156.455,40.360 157.201 C 40.360 164.117,46.710 173.717,57.292 182.797 L 60.038 185.153 59.827 187.182 C 59.429 191.020,57.786 192.569,54.019 192.657 C 53.210 192.676,43.677 192.766,32.835 192.857 L 13.123 193.022 13.345 110.197 C 13.612 9.943,13.088 21.153,17.708 16.894 C 21.706 13.209,14.204 13.532,100.899 13.318 C 166.045 13.157,175.339 13.060,176.149 12.536 C 179.996 10.043,180.300 5.167,176.850 1.299 L 175.692 0.000 138.495 0.082 C 118.037 0.128,83.137 0.270,60.939 0.400 " stroke="none" fill="#040404" fill-rule="evenodd"></path><path id="path2" d="M50.849 0.286 C 51.454 0.378,52.443 0.378,53.047 0.286 C 53.651 0.195,53.157 0.120,51.948 0.120 C 50.739 0.120,50.245 0.195,50.849 0.286 M296.186 0.296 C 297.660 0.373,300.178 0.373,301.781 0.297 C 303.384 0.221,302.178 0.158,299.101 0.158 C 296.024 0.157,294.712 0.219,296.186 0.296 M107.592 13.486 C 120.065 13.545,140.475 13.545,152.947 13.486 C 165.420 13.428,155.215 13.380,130.270 13.380 C 105.325 13.380,95.120 13.428,107.592 13.486 M231.499 13.486 C 244.868 13.545,266.626 13.545,279.851 13.486 C 293.076 13.428,282.138 13.380,255.544 13.380 C 228.951 13.380,218.131 13.428,231.499 13.486 M206.747 41.958 C 206.747 44.705,206.811 45.829,206.889 44.456 C 206.967 43.082,206.967 40.834,206.889 39.461 C 206.811 38.087,206.747 39.211,206.747 41.958 M386.193 83.916 C 386.193 91.059,386.247 93.981,386.313 90.410 C 386.379 86.838,386.379 80.994,386.313 77.423 C 386.247 73.851,386.193 76.773,386.193 83.916 M399.353 87.313 C 399.354 89.950,399.419 90.977,399.497 89.595 C 399.575 88.212,399.575 86.055,399.496 84.800 C 399.417 83.544,399.353 84.675,399.353 87.313 M13.381 140.460 C 13.381 169.031,13.428 180.660,13.486 166.303 C 13.545 151.945,13.545 128.568,13.486 114.355 C 13.428 100.141,13.381 111.888,13.381 140.460 M0.160 103.297 C 0.160 106.593,0.222 107.889,0.297 106.176 C 0.372 104.462,0.372 101.765,0.296 100.182 C 0.221 98.598,0.159 100.000,0.160 103.297 M45.654 192.894 C 46.259 192.985,47.248 192.985,47.852 192.894 C 48.457 192.802,47.962 192.727,46.753 192.727 C 45.544 192.727,45.050 192.802,45.654 192.894 M11.688 206.493 C 16.029 206.558,23.132 206.558,27.473 206.493 C 31.813 206.428,28.262 206.376,19.580 206.376 C 10.899 206.376,7.348 206.428,11.688 206.493 M354.545 206.890 C 356.029 206.967,358.457 206.967,359.940 206.890 C 361.424 206.813,360.210 206.750,357.243 206.750 C 354.276 206.750,353.062 206.813,354.545 206.890 M386.208 262.338 C 386.208 292.667,386.256 305.134,386.314 290.041 C 386.372 274.948,386.372 250.133,386.314 234.896 C 386.256 219.659,386.208 232.008,386.208 262.338 M13.380 271.728 C 13.380 297.992,13.428 308.736,13.486 295.604 C 13.545 282.473,13.545 260.984,13.486 247.852 C 13.428 234.720,13.380 245.465,13.380 271.728 M399.361 296.304 C 399.361 299.600,399.423 300.896,399.498 299.183 C 399.573 297.469,399.573 294.772,399.497 293.189 C 399.421 291.605,399.360 293.007,399.361 296.304 M0.153 309.890 C 0.153 312.527,0.218 313.554,0.296 312.172 C 0.375 310.790,0.374 308.632,0.295 307.377 C 0.216 306.122,0.152 307.253,0.153 309.890 M192.727 353.247 C 192.727 354.456,192.802 354.950,192.894 354.346 C 192.985 353.741,192.985 352.752,192.894 352.148 C 192.802 351.543,192.727 352.038,192.727 353.247 M206.694 357.443 C 206.699 358.322,206.780 358.634,206.876 358.137 C 206.972 357.640,206.968 356.921,206.868 356.539 C 206.768 356.157,206.690 356.563,206.694 357.443 M124.207 386.314 C 136.806 386.372,157.305 386.372,169.761 386.314 C 182.217 386.255,171.908 386.207,146.853 386.207 C 121.798 386.207,111.607 386.255,124.207 386.314 M245.424 386.314 C 257.220 386.372,276.641 386.372,288.581 386.314 C 300.521 386.255,290.869 386.207,267.133 386.207 C 243.397 386.207,233.628 386.255,245.424 386.314 M94.406 399.497 C 95.889 399.574,98.317 399.574,99.800 399.497 C 101.284 399.420,100.070 399.357,97.103 399.357 C 94.136 399.357,92.922 399.420,94.406 399.497 M312.403 399.497 C 313.786 399.575,315.943 399.575,317.198 399.496 C 318.454 399.417,317.323 399.353,314.685 399.353 C 312.048 399.354,311.021 399.419,312.403 399.497 " stroke="none" fill="#747474" fill-rule="evenodd"></path><path id="path3" d="M43.856 0.295 C 45.010 0.375,46.898 0.375,48.052 0.295 C 49.206 0.214,48.262 0.148,45.954 0.148 C 43.646 0.148,42.702 0.214,43.856 0.295 M309.790 0.299 C 312.812 0.367,317.757 0.367,320.779 0.299 C 323.801 0.231,321.329 0.175,315.285 0.175 C 309.241 0.175,306.768 0.231,309.790 0.299 M193.194 25.175 C 193.194 37.373,193.244 42.363,193.306 36.264 C 193.368 30.165,193.368 20.185,193.306 14.086 C 193.244 7.987,193.194 12.977,193.194 25.175 M176.398 12.488 L 175.225 13.786 176.523 12.613 C 177.238 11.967,177.822 11.383,177.822 11.314 C 177.822 11.005,177.492 11.277,176.398 12.488 M206.774 13.691 C 206.668 13.969,206.629 19.408,206.688 25.779 L 206.794 37.363 206.994 25.275 C 207.103 18.626,207.142 13.186,207.080 13.187 C 207.019 13.187,206.881 13.414,206.774 13.691 M366.738 13.869 C 367.235 13.965,367.954 13.961,368.336 13.861 C 368.718 13.761,368.312 13.683,367.433 13.687 C 366.553 13.692,366.241 13.773,366.738 13.869 M13.695 32.368 C 13.695 33.357,13.773 33.761,13.868 33.267 C 13.964 32.772,13.964 31.963,13.868 31.469 C 13.773 30.974,13.695 31.379,13.695 32.368 M207.094 48.551 C 207.098 49.431,207.180 49.743,207.276 49.246 C 207.371 48.749,207.368 48.030,207.268 47.648 C 207.168 47.266,207.089 47.672,207.094 48.551 M232.169 59.739 C 231.654 60.287,231.333 60.837,231.457 60.960 C 231.580 61.084,232.073 60.635,232.551 59.963 C 233.605 58.483,233.440 58.386,232.169 59.739 M399.377 71.329 C 399.377 77.702,399.433 80.254,399.500 76.999 C 399.567 73.743,399.567 68.529,399.499 65.410 C 399.432 62.292,399.377 64.955,399.377 71.329 M0.179 84.316 C 0.179 91.678,0.233 94.690,0.299 91.009 C 0.365 87.328,0.365 81.304,0.299 77.622 C 0.233 73.941,0.179 76.953,0.179 84.316 M265.427 84.715 C 265.427 85.485,265.510 85.799,265.610 85.415 C 265.711 85.030,265.711 84.401,265.610 84.016 C 265.510 83.631,265.427 83.946,265.427 84.715 M225.774 92.507 C 226.520 93.277,227.220 93.906,227.330 93.906 C 227.439 93.906,226.919 93.277,226.174 92.507 C 225.428 91.738,224.728 91.109,224.618 91.109 C 224.509 91.109,225.029 91.738,225.774 92.507 M386.112 136.089 L 386.014 175.675 387.313 176.848 L 388.611 178.022 387.514 176.803 L 386.418 175.585 386.314 136.044 L 386.210 96.503 386.112 136.089 M258.486 101.086 C 257.967 101.518,257.739 101.877,257.980 101.885 C 258.221 101.892,258.743 101.538,259.141 101.099 C 260.066 100.076,259.706 100.069,258.486 101.086 M206.786 147.852 C 206.786 172.358,206.834 182.383,206.893 170.130 C 206.952 157.877,206.952 137.827,206.893 125.574 C 206.834 113.322,206.786 123.347,206.786 147.852 M193.121 109.291 C 193.124 110.390,193.202 110.792,193.294 110.184 C 193.386 109.577,193.383 108.678,193.288 108.186 C 193.193 107.695,193.118 108.192,193.121 109.291 M192.700 113.487 C 192.700 114.256,192.782 114.570,192.883 114.186 C 192.983 113.801,192.983 113.172,192.883 112.787 C 192.782 112.403,192.700 112.717,192.700 113.487 M50.072 130.499 L 48.951 131.527 50.250 130.623 C 50.964 130.126,51.548 129.664,51.548 129.595 C 51.548 129.280,51.106 129.550,50.072 130.499 M192.705 161.936 L 192.607 192.604 147.752 192.707 L 102.897 192.811 147.765 192.909 C 183.363 192.987,192.672 192.904,192.823 192.507 C 192.928 192.233,192.966 178.342,192.908 161.638 L 192.802 131.269 192.705 161.936 M100.699 140.561 C 100.699 140.781,100.969 141.185,101.299 141.459 C 101.633 141.736,101.898 141.779,101.898 141.556 C 101.898 141.337,101.628 140.933,101.299 140.659 C 100.964 140.382,100.699 140.339,100.699 140.561 M119.481 153.423 C 119.481 154.315,119.660 155.045,119.880 155.045 C 120.100 155.045,120.280 154.426,120.280 153.670 C 120.280 152.914,120.100 152.184,119.880 152.048 C 119.639 151.899,119.481 152.443,119.481 153.423 M64.680 171.405 C 65.198 171.857,65.813 172.228,66.045 172.228 C 66.536 172.228,66.513 172.208,64.935 171.284 L 63.736 170.582 64.680 171.405 M92.286 173.726 L 90.909 175.225 92.408 173.848 C 93.802 172.566,94.090 172.228,93.785 172.228 C 93.718 172.228,93.044 172.902,92.286 173.726 M13.531 192.712 C 13.699 192.880,20.838 192.969,29.395 192.912 L 44.955 192.807 29.091 192.607 C 20.365 192.497,13.363 192.545,13.531 192.712 M47.857 192.490 C 48.354 192.586,49.073 192.582,49.455 192.482 C 49.837 192.382,49.431 192.304,48.551 192.309 C 47.672 192.313,47.360 192.395,47.857 192.490 M222.078 192.907 C 230.485 192.967,244.241 192.967,252.647 192.907 C 261.054 192.847,254.176 192.797,237.363 192.797 C 220.549 192.797,213.671 192.847,222.078 192.907 M285.814 192.883 C 286.199 192.983,286.828 192.983,287.213 192.883 C 287.597 192.782,287.283 192.700,286.513 192.700 C 285.744 192.700,285.430 192.782,285.814 192.883 M289.416 193.294 C 290.024 193.386,290.923 193.383,291.414 193.288 C 291.906 193.193,291.409 193.118,290.310 193.121 C 289.211 193.124,288.809 193.202,289.416 193.294 M363.337 193.306 C 369.436 193.368,379.416 193.368,385.514 193.306 C 391.613 193.244,386.623 193.194,374.426 193.194 C 362.228 193.194,357.238 193.244,363.337 193.306 M38.481 206.492 C 40.415 206.565,43.472 206.565,45.274 206.491 C 47.077 206.417,45.495 206.357,41.758 206.357 C 38.022 206.358,36.547 206.418,38.481 206.492 M107.792 206.476 C 108.287 206.571,109.096 206.571,109.590 206.476 C 110.085 206.381,109.680 206.303,108.691 206.303 C 107.702 206.303,107.298 206.381,107.792 206.476 M112.992 206.876 C 113.489 206.972,114.208 206.968,114.590 206.868 C 114.972 206.768,114.565 206.690,113.686 206.694 C 112.807 206.699,112.495 206.780,112.992 206.876 M145.954 206.893 C 154.471 206.953,168.407 206.953,176.923 206.893 C 185.440 206.833,178.472 206.784,161.439 206.784 C 144.406 206.784,137.438 206.833,145.954 206.893 M229.471 206.893 C 241.723 206.952,261.773 206.952,274.026 206.893 C 286.279 206.834,276.254 206.786,251.748 206.786 C 227.243 206.786,217.218 206.834,229.471 206.893 M366.434 206.876 C 376.951 207.158,386.322 207.166,386.153 206.893 C 386.050 206.728,380.628 206.632,374.102 206.678 C 367.577 206.725,364.126 206.814,366.434 206.876 M192.800 251.748 C 192.800 276.474,192.848 286.588,192.907 274.226 C 192.966 261.863,192.966 241.633,192.907 229.271 C 192.848 216.908,192.800 227.023,192.800 251.748 M350.150 207.268 C 350.534 207.369,351.164 207.369,351.548 207.268 C 351.933 207.168,351.618 207.086,350.849 207.086 C 350.080 207.086,349.765 207.168,350.150 207.268 M206.784 238.961 C 206.784 256.434,206.833 263.581,206.893 254.845 C 206.953 246.109,206.953 231.813,206.893 223.077 C 206.833 214.341,206.784 221.489,206.784 238.961 M11.189 221.903 C 11.189 221.972,11.773 222.556,12.488 223.202 L 13.786 224.376 12.613 223.077 C 11.519 221.866,11.189 221.595,11.189 221.903 M307.271 225.674 L 305.894 227.173 307.393 225.796 C 308.787 224.514,309.075 224.176,308.770 224.176 C 308.703 224.176,308.029 224.850,307.271 225.674 M298.102 258.444 C 298.102 258.663,298.372 259.067,298.701 259.341 C 299.036 259.618,299.301 259.661,299.301 259.439 C 299.301 259.219,299.031 258.815,298.701 258.541 C 298.367 258.264,298.102 258.221,298.102 258.444 M206.694 285.914 C 206.699 286.793,206.780 287.106,206.876 286.609 C 206.972 286.112,206.968 285.392,206.868 285.010 C 206.768 284.628,206.690 285.035,206.694 285.914 M206.308 291.109 C 206.311 292.208,206.389 292.610,206.481 292.002 C 206.572 291.395,206.570 290.496,206.475 290.004 C 206.380 289.513,206.305 290.010,206.308 291.109 M399.380 315.285 C 399.380 322.647,399.434 325.659,399.500 321.978 C 399.566 318.297,399.566 312.273,399.500 308.591 C 399.434 304.910,399.380 307.922,399.380 315.285 M173.826 307.493 C 174.572 308.262,175.272 308.891,175.382 308.891 C 175.491 308.891,174.971 308.262,174.226 307.493 C 173.480 306.723,172.780 306.094,172.670 306.094 C 172.561 306.094,173.081 306.723,173.826 307.493 M133.959 314.885 C 133.959 315.654,134.041 315.969,134.142 315.584 C 134.242 315.200,134.242 314.570,134.142 314.186 C 134.041 313.801,133.959 314.116,133.959 314.885 M0.176 325.874 C 0.177 332.248,0.232 334.799,0.299 331.544 C 0.366 328.289,0.366 323.074,0.299 319.956 C 0.231 316.837,0.176 319.500,0.176 325.874 M166.451 340.369 L 164.918 342.258 166.655 340.573 C 167.611 339.647,168.301 338.797,168.189 338.685 C 168.077 338.573,167.295 339.331,166.451 340.369 M206.303 348.052 C 206.303 349.041,206.381 349.446,206.476 348.951 C 206.571 348.457,206.571 347.647,206.476 347.153 C 206.381 346.658,206.303 347.063,206.303 348.052 M192.328 351.648 C 192.328 352.857,192.402 353.352,192.494 352.747 C 192.586 352.143,192.586 351.154,192.494 350.549 C 192.402 349.945,192.328 350.440,192.328 351.648 M206.717 353.846 C 206.719 355.165,206.794 355.656,206.883 354.938 C 206.972 354.220,206.970 353.141,206.879 352.540 C 206.788 351.940,206.715 352.527,206.717 353.846 M192.607 370.710 C 192.497 379.325,192.545 386.237,192.712 386.069 C 192.880 385.902,192.969 378.853,192.912 370.405 L 192.807 355.045 192.607 370.710 M13.687 368.232 C 13.692 369.111,13.773 369.423,13.869 368.926 C 13.965 368.429,13.961 367.710,13.861 367.328 C 13.761 366.946,13.683 367.353,13.687 368.232 M206.721 377.622 C 206.721 379.051,206.794 379.635,206.882 378.921 C 206.971 378.207,206.971 377.038,206.882 376.324 C 206.794 375.609,206.721 376.194,206.721 377.622 M367.537 385.897 C 368.034 385.993,368.753 385.989,369.136 385.889 C 369.518 385.789,369.111 385.711,368.232 385.715 C 367.353 385.720,367.040 385.801,367.537 385.897 M75.624 399.500 C 78.646 399.567,83.591 399.567,86.613 399.500 C 89.635 399.432,87.163 399.376,81.119 399.376 C 75.075 399.376,72.602 399.432,75.624 399.500 M187.313 399.483 C 187.807 399.578,188.616 399.578,189.111 399.483 C 189.605 399.388,189.201 399.310,188.212 399.310 C 187.223 399.310,186.818 399.388,187.313 399.483 M323.776 399.499 C 326.359 399.569,330.584 399.569,333.167 399.499 C 335.749 399.430,333.636 399.373,328.472 399.373 C 323.307 399.373,321.194 399.430,323.776 399.499 " stroke="none" fill="#7c7c7c" fill-rule="evenodd"></path><path id="path4" d="M65.634 0.299 C 72.173 0.361,82.872 0.361,89.411 0.299 C 95.949 0.238,90.599 0.187,77.522 0.187 C 64.446 0.187,59.096 0.238,65.634 0.299 M248.052 0.300 C 256.459 0.360,270.215 0.360,278.621 0.300 C 287.028 0.239,280.150 0.190,263.337 0.190 C 246.523 0.190,239.645 0.239,248.052 0.300 M25.479 0.682 C 25.976 0.778,26.696 0.774,27.078 0.674 C 27.460 0.574,27.053 0.496,26.174 0.500 C 25.295 0.505,24.982 0.587,25.479 0.682 M391.009 7.992 C 392.314 9.311,393.471 10.390,393.581 10.390 C 393.691 10.390,392.714 9.311,391.409 7.992 C 390.104 6.673,388.946 5.594,388.836 5.594 C 388.726 5.594,389.704 6.673,391.009 7.992 M32.068 13.481 C 33.112 13.563,34.820 13.563,35.864 13.481 C 36.908 13.398,36.054 13.331,33.966 13.331 C 31.878 13.331,31.024 13.398,32.068 13.481 M57.870 13.486 C 62.995 13.549,71.266 13.549,76.251 13.486 C 81.236 13.423,77.043 13.371,66.933 13.371 C 56.823 13.371,52.745 13.423,57.870 13.486 M313.159 13.486 C 318.474 13.549,327.285 13.549,332.740 13.486 C 338.194 13.423,333.846 13.372,323.077 13.372 C 312.308 13.372,307.845 13.423,313.159 13.486 M358.741 13.484 C 360.335 13.559,362.942 13.559,364.535 13.484 C 366.129 13.408,364.825 13.346,361.638 13.346 C 358.452 13.346,357.148 13.408,358.741 13.484 M26.474 13.862 C 26.858 13.962,27.488 13.962,27.872 13.862 C 28.257 13.761,27.942 13.679,27.173 13.679 C 26.404 13.679,26.089 13.761,26.474 13.862 M370.734 13.869 C 371.231 13.965,371.950 13.961,372.332 13.861 C 372.714 13.761,372.308 13.683,371.429 13.687 C 370.549 13.692,370.237 13.773,370.734 13.869 M385.707 27.173 C 385.707 27.942,385.789 28.257,385.890 27.872 C 385.990 27.488,385.990 26.858,385.890 26.474 C 385.789 26.089,385.707 26.404,385.707 27.173 M13.687 28.172 C 13.692 29.051,13.773 29.364,13.869 28.866 C 13.965 28.369,13.961 27.650,13.861 27.268 C 13.761 26.886,13.683 27.293,13.687 28.172 M386.160 34.166 C 386.161 36.364,386.228 37.212,386.309 36.051 C 386.390 34.889,386.389 33.091,386.307 32.055 C 386.225 31.018,386.159 31.968,386.160 34.166 M13.349 38.961 C 13.349 42.478,13.410 43.863,13.484 42.039 C 13.559 40.215,13.558 37.338,13.483 35.645 C 13.409 33.953,13.348 35.445,13.349 38.961 M243.157 39.960 C 243.293 40.180,243.753 40.360,244.179 40.360 C 244.606 40.360,244.955 40.180,244.955 39.960 C 244.955 39.740,244.495 39.560,243.932 39.560 C 243.352 39.560,243.017 39.733,243.157 39.960 M247.153 39.960 C 247.289 40.180,247.648 40.360,247.952 40.360 C 248.256 40.360,248.615 40.180,248.751 39.960 C 248.892 39.733,248.548 39.560,247.952 39.560 C 247.356 39.560,247.012 39.733,247.153 39.960 M206.621 48.984 C 206.637 50.285,206.807 51.708,206.999 52.148 C 207.215 52.641,207.260 51.801,207.115 49.950 C 206.829 46.278,206.584 45.797,206.621 48.984 M223.365 49.850 L 220.779 52.547 223.477 49.962 C 225.982 47.560,226.356 47.153,226.062 47.153 C 226.001 47.153,224.787 48.367,223.365 49.850 M266.933 48.477 C 266.933 48.545,267.517 49.130,268.232 49.775 L 269.530 50.949 268.357 49.650 C 267.263 48.440,266.933 48.168,266.933 48.477 M386.189 60.340 C 386.189 66.384,386.245 68.856,386.313 65.834 C 386.381 62.812,386.381 57.867,386.313 54.845 C 386.245 51.823,386.189 54.296,386.189 60.340 M193.041 52.747 C 193.077 54.372,193.744 55.650,193.772 54.146 C 193.784 53.487,193.620 52.677,193.407 52.348 C 193.101 51.875,193.024 51.960,193.041 52.747 M257.343 57.268 C 257.343 57.337,257.927 57.921,258.641 58.567 L 259.940 59.740 258.766 58.442 C 257.672 57.231,257.343 56.959,257.343 57.268 M231.770 59.739 C 231.254 60.287,230.908 60.803,231.001 60.885 C 231.093 60.967,231.587 60.518,232.098 59.887 C 233.242 58.477,233.041 58.386,231.770 59.739 M13.368 73.926 C 13.368 82.168,13.421 85.539,13.486 81.419 C 13.551 77.298,13.551 70.554,13.486 66.434 C 13.421 62.313,13.368 65.684,13.368 73.926 M206.793 72.142 C 207.453 72.444,208.352 72.687,208.791 72.683 C 209.231 72.678,208.781 72.419,207.792 72.107 C 205.574 71.408,205.217 71.421,206.793 72.142 M218.182 72.162 C 216.873 72.698,216.860 72.720,217.982 72.503 C 218.641 72.375,219.352 72.104,219.560 71.900 C 220.039 71.432,219.901 71.458,218.182 72.162 M212.088 73.016 C 212.802 73.105,213.971 73.105,214.685 73.016 C 215.400 72.928,214.815 72.855,213.387 72.855 C 211.958 72.855,211.374 72.928,212.088 73.016 M265.891 79.920 C 265.891 82.887,265.954 84.101,266.031 82.617 C 266.107 81.134,266.107 78.706,266.031 77.223 C 265.954 75.739,265.891 76.953,265.891 79.920 M211.688 87.002 C 212.403 87.091,213.571 87.091,214.286 87.002 C 215.000 86.914,214.416 86.841,212.987 86.841 C 211.558 86.841,210.974 86.914,211.688 87.002 M215.831 86.893 C 215.965 87.027,216.672 87.309,217.401 87.518 C 218.131 87.727,218.560 87.745,218.355 87.557 C 217.930 87.169,215.455 86.518,215.831 86.893 M207.393 87.531 C 206.955 87.827,207.117 87.864,207.992 87.668 C 209.461 87.340,209.780 87.111,208.758 87.119 C 208.337 87.122,207.722 87.308,207.393 87.531 M203.696 88.940 C 202.147 89.780,202.322 90.070,203.896 89.270 C 205.402 88.504,205.669 88.306,205.162 88.328 C 204.960 88.336,204.301 88.612,203.696 88.940 M399.387 112.887 C 399.387 124.535,399.438 129.243,399.500 123.349 C 399.563 117.454,399.563 107.923,399.500 102.170 C 399.438 96.416,399.387 101.239,399.387 112.887 M193.207 104.296 C 193.057 104.768,193.024 105.245,193.134 105.355 C 193.244 105.465,193.456 105.168,193.606 104.695 C 193.756 104.223,193.789 103.746,193.679 103.636 C 193.569 103.526,193.357 103.823,193.207 104.296 M221.778 108.816 C 221.778 108.885,222.363 109.470,223.077 110.115 L 224.376 111.289 223.202 109.990 C 222.108 108.779,221.778 108.508,221.778 108.816 M0.188 134.066 C 0.188 147.912,0.238 153.518,0.300 146.525 C 0.361 139.531,0.361 128.202,0.299 121.350 C 0.238 114.497,0.188 120.220,0.188 134.066 M267.907 110.390 L 266.733 111.688 268.032 110.515 C 268.746 109.869,269.331 109.285,269.331 109.216 C 269.331 108.907,269.001 109.179,267.907 110.390 M192.911 115.085 C 192.748 116.294,192.634 118.362,192.658 119.680 L 192.701 122.078 193.068 119.880 C 193.269 118.671,193.383 116.603,193.321 115.285 L 193.207 112.887 192.911 115.085 M245.554 119.880 C 245.410 120.114,245.825 120.280,246.553 120.280 C 247.282 120.280,247.697 120.114,247.552 119.880 C 247.417 119.660,246.967 119.481,246.553 119.481 C 246.140 119.481,245.690 119.660,245.554 119.880 M56.843 125.870 C 56.129 126.305,55.544 126.748,55.544 126.854 C 55.544 126.959,56.174 126.675,56.943 126.221 C 57.712 125.767,58.342 125.323,58.342 125.235 C 58.342 124.980,58.215 125.033,56.843 125.870 M103.497 126.374 C 103.497 126.628,106.590 128.671,106.973 128.671 C 107.137 128.671,106.916 128.429,106.483 128.133 C 104.576 126.832,103.497 126.196,103.497 126.374 M50.350 130.706 C 49.580 131.373,49.313 131.745,49.755 131.531 C 50.484 131.179,52.296 129.456,51.910 129.481 C 51.821 129.487,51.119 130.038,50.350 130.706 M109.491 130.794 C 109.491 130.863,110.075 131.448,110.789 132.093 L 112.088 133.267 110.914 131.968 C 109.820 130.757,109.491 130.486,109.491 130.794 M58.117 141.159 L 56.943 142.458 58.242 141.284 C 58.956 140.638,59.540 140.054,59.540 139.985 C 59.540 139.676,59.211 139.948,58.117 141.159 M105.163 147.053 C 105.183 148.091,105.812 149.797,105.826 148.851 C 105.833 148.412,105.683 147.692,105.495 147.253 C 105.284 146.763,105.156 146.686,105.163 147.053 M53.796 148.467 C 53.659 148.824,53.562 149.416,53.581 149.783 C 53.600 150.150,53.774 149.919,53.967 149.271 C 54.344 148.010,54.211 147.385,53.796 148.467 M59.428 167.441 C 60.135 168.183,60.781 168.709,60.864 168.611 C 60.947 168.512,60.368 167.905,59.578 167.262 L 58.142 166.092 59.428 167.441 M71.977 181.028 C 72.581 182.817,72.922 183.165,72.555 181.618 C 72.399 180.959,72.099 180.244,71.889 180.029 C 71.679 179.814,71.718 180.264,71.977 181.028 M87.255 181.512 C 87.088 181.783,86.912 183.626,86.865 185.608 L 86.780 189.211 87.076 185.590 C 87.239 183.599,87.504 181.756,87.666 181.494 C 87.827 181.233,87.869 181.019,87.759 181.019 C 87.650 181.019,87.423 181.241,87.255 181.512 M72.864 186.014 C 72.866 187.772,72.936 188.442,73.020 187.502 C 73.105 186.562,73.104 185.123,73.018 184.305 C 72.932 183.487,72.863 184.256,72.864 186.014 M72.374 190.677 C 72.349 191.043,72.224 191.673,72.098 192.075 C 71.880 192.769,71.892 192.770,72.324 192.095 C 72.576 191.704,72.700 191.074,72.601 190.697 C 72.438 190.078,72.416 190.076,72.374 190.677 M87.119 190.842 C 87.122 191.264,87.308 191.878,87.531 192.208 C 87.827 192.646,87.864 192.484,87.668 191.608 C 87.340 190.139,87.111 189.820,87.119 190.842 M49.750 192.607 C 48.595 192.901,48.610 192.914,50.150 192.954 C 51.029 192.976,52.018 192.820,52.348 192.607 C 53.082 192.133,51.616 192.133,49.750 192.607 M279.720 193.021 C 281.149 193.182,283.397 193.312,284.715 193.310 L 287.113 193.307 285.315 192.987 C 284.326 192.811,282.078 192.681,280.320 192.698 L 277.123 192.729 279.720 193.021 M294.705 193.407 C 294.841 193.626,295.222 193.806,295.552 193.806 C 295.881 193.806,296.040 193.626,295.904 193.407 C 295.768 193.187,295.387 193.007,295.058 193.007 C 294.728 193.007,294.569 193.187,294.705 193.407 M344.855 193.407 C 344.395 193.704,344.535 193.794,345.455 193.794 C 346.114 193.794,346.923 193.620,347.253 193.407 C 347.713 193.109,347.573 193.019,346.653 193.019 C 345.994 193.019,345.185 193.194,344.855 193.407 M88.312 194.694 C 88.312 195.036,88.680 195.741,89.131 196.259 L 89.950 197.203 89.280 195.804 C 88.448 194.068,88.312 193.912,88.312 194.694 M311.337 206.203 C 311.942 207.992,312.283 208.340,311.916 206.793 C 311.760 206.134,311.460 205.419,311.250 205.204 C 311.039 204.989,311.079 205.439,311.337 206.203 M52.547 206.194 C 51.861 206.489,51.918 206.540,52.947 206.559 C 53.606 206.571,54.416 206.407,54.745 206.194 C 55.527 205.689,53.723 205.689,52.547 206.194 M103.896 206.194 C 104.226 206.407,104.765 206.581,105.095 206.581 C 105.628 206.581,105.628 206.538,105.095 206.194 C 104.765 205.981,104.226 205.806,103.896 205.806 C 103.363 205.806,103.363 205.849,103.896 206.194 M327.319 207.032 C 327.074 207.736,326.885 208.599,326.900 208.951 C 326.915 209.303,327.176 208.788,327.482 207.808 C 328.121 205.756,327.987 205.116,327.319 207.032 M114.286 206.610 C 115.495 206.777,118.012 206.903,119.880 206.891 L 123.277 206.867 120.480 206.580 C 118.941 206.422,116.424 206.296,114.885 206.300 L 112.088 206.306 114.286 206.610 M347.253 207.011 C 346.836 207.293,347.443 207.336,349.251 207.152 C 350.679 207.006,351.923 206.821,352.015 206.740 C 352.418 206.384,347.790 206.648,347.253 207.011 M326.611 212.787 C 326.612 214.545,326.682 215.215,326.767 214.275 C 326.851 213.335,326.850 211.897,326.764 211.078 C 326.678 210.260,326.609 211.029,326.611 212.787 M312.602 213.586 C 312.605 214.685,312.682 215.087,312.774 214.480 C 312.866 213.873,312.864 212.974,312.769 212.482 C 312.674 211.991,312.599 212.488,312.602 213.586 M311.824 218.150 C 311.394 219.460,311.183 220.445,311.355 220.339 C 311.708 220.121,312.961 216.124,312.744 215.908 C 312.668 215.831,312.253 216.840,311.824 218.150 M326.929 217.635 C 327.159 218.485,327.498 219.340,327.683 219.534 C 327.868 219.728,327.803 219.156,327.539 218.262 C 326.918 216.158,326.381 215.606,326.929 217.635 M289.485 223.077 L 288.312 224.376 289.610 223.202 C 290.325 222.556,290.909 221.972,290.909 221.903 C 290.909 221.595,290.579 221.866,289.485 223.077 M338.861 231.094 C 338.861 231.163,339.446 231.747,340.160 232.393 L 341.459 233.566 340.285 232.268 C 339.191 231.057,338.861 230.785,338.861 231.094 M399.389 264.535 C 399.389 278.931,399.439 284.820,399.500 277.622 C 399.561 270.425,399.561 258.646,399.500 251.449 C 399.439 244.251,399.389 250.140,399.389 264.535 M293.008 246.354 C 293.012 247.233,293.094 247.545,293.190 247.048 C 293.285 246.551,293.282 245.832,293.182 245.450 C 293.082 245.068,293.003 245.475,293.008 246.354 M0.187 283.516 C 0.186 295.604,0.237 300.607,0.299 294.634 C 0.362 288.660,0.362 278.770,0.299 272.656 C 0.237 266.541,0.187 271.429,0.187 283.516 M317.582 266.016 C 318.077 266.112,318.886 266.112,319.381 266.016 C 319.875 265.921,319.471 265.843,318.482 265.843 C 317.493 265.843,317.088 265.921,317.582 266.016 M322.178 266.010 C 322.562 266.110,323.192 266.110,323.576 266.010 C 323.961 265.909,323.646 265.827,322.877 265.827 C 322.108 265.827,321.793 265.909,322.178 266.010 M288.112 267.058 C 288.112 267.127,288.696 267.711,289.411 268.357 L 290.709 269.530 289.536 268.232 C 288.442 267.021,288.112 266.749,288.112 267.058 M206.430 281.319 C 206.255 283.626,206.186 285.964,206.275 286.513 C 206.365 287.063,206.582 285.624,206.757 283.317 C 206.932 281.009,207.001 278.671,206.911 278.122 C 206.822 277.572,206.605 279.011,206.430 281.319 M150.450 279.720 C 150.585 279.940,150.945 280.120,151.249 280.120 C 151.552 280.120,151.912 279.940,152.048 279.720 C 152.189 279.493,151.844 279.321,151.249 279.321 C 150.653 279.321,150.309 279.493,150.450 279.720 M154.645 279.720 C 154.645 279.940,154.904 280.120,155.221 280.120 C 155.538 280.120,155.908 279.940,156.044 279.720 C 156.180 279.500,155.921 279.321,155.468 279.321 C 155.016 279.321,154.645 279.500,154.645 279.720 M128.594 292.408 C 127.890 293.227,127.362 294.106,127.574 294.106 C 127.655 294.106,128.121 293.566,128.608 292.907 C 129.571 291.604,129.562 291.280,128.594 292.408 M152.552 293.190 C 153.049 293.285,153.768 293.282,154.151 293.182 C 154.533 293.082,154.126 293.003,153.247 293.008 C 152.368 293.012,152.055 293.094,152.552 293.190 M205.994 294.905 C 205.844 295.378,205.811 295.854,205.921 295.964 C 206.031 296.074,206.244 295.777,206.394 295.305 C 206.544 294.832,206.576 294.355,206.467 294.245 C 206.357 294.136,206.144 294.432,205.994 294.905 M140.834 298.202 L 139.660 299.500 140.959 298.327 C 142.170 297.233,142.441 296.903,142.133 296.903 C 142.064 296.903,141.480 297.488,140.834 298.202 M196.507 309.920 C 196.381 310.046,195.227 310.581,193.943 311.109 C 192.659 311.637,191.878 312.071,192.208 312.075 C 192.907 312.081,197.003 310.231,197.003 309.908 C 197.003 309.626,196.796 309.631,196.507 309.920 M180.420 311.903 C 181.079 312.204,181.888 312.446,182.218 312.439 C 182.547 312.432,182.188 312.184,181.419 311.888 C 179.594 311.186,178.876 311.196,180.420 311.903 M185.120 312.774 C 185.728 312.866,186.627 312.864,187.118 312.769 C 187.610 312.674,187.113 312.599,186.014 312.602 C 184.915 312.605,184.513 312.682,185.120 312.774 M133.623 319.680 C 133.623 322.647,133.686 323.861,133.763 322.378 C 133.840 320.894,133.840 318.467,133.763 316.983 C 133.686 315.500,133.623 316.713,133.623 319.680 M386.195 331.868 C 386.195 340.000,386.248 343.270,386.313 339.135 C 386.378 334.999,386.378 328.346,386.313 324.349 C 386.248 320.353,386.195 323.736,386.195 331.868 M13.365 331.868 C 13.365 338.901,13.420 341.722,13.486 338.137 C 13.552 334.551,13.552 328.797,13.486 325.349 C 13.419 321.902,13.365 324.835,13.365 331.868 M181.818 326.940 C 181.049 327.158,180.261 327.489,180.066 327.677 C 179.872 327.865,180.444 327.803,181.338 327.539 C 182.232 327.275,183.096 326.928,183.257 326.766 C 183.594 326.430,183.653 326.423,181.818 326.940 M184.906 326.762 C 185.616 326.850,186.874 326.852,187.703 326.765 C 188.532 326.679,187.952 326.606,186.414 326.605 C 184.875 326.603,184.197 326.674,184.906 326.762 M190.243 327.017 C 190.335 327.096,190.949 327.281,191.608 327.428 C 192.484 327.624,192.646 327.587,192.208 327.291 C 191.668 326.926,189.842 326.671,190.243 327.017 M167.254 339.989 L 166.077 341.459 167.554 340.081 C 169.080 338.658,169.241 338.441,168.731 338.490 C 168.566 338.506,167.902 339.181,167.254 339.989 M123.876 339.010 C 123.876 339.442,125.463 342.458,125.691 342.458 C 125.800 342.458,125.505 341.693,125.034 340.759 C 124.108 338.922,123.876 338.573,123.876 339.010 M205.806 343.656 C 205.806 343.986,205.981 344.525,206.194 344.855 C 206.538 345.388,206.581 345.388,206.581 344.855 C 206.581 344.525,206.407 343.986,206.194 343.656 C 205.849 343.124,205.806 343.124,205.806 343.656 M127.836 345.987 C 128.052 346.390,128.542 346.974,128.926 347.286 C 129.357 347.636,129.261 347.357,128.673 346.553 C 127.623 345.120,127.230 344.853,127.836 345.987 M148.851 345.865 C 149.730 346.155,150.809 346.390,151.249 346.387 C 151.688 346.384,151.149 346.132,150.050 345.826 C 147.550 345.130,146.705 345.158,148.851 345.865 M192.261 347.852 C 192.343 350.240,192.907 351.703,192.954 349.650 C 192.976 348.661,192.820 347.582,192.607 347.253 C 192.313 346.797,192.230 346.941,192.261 347.852 M206.300 356.444 C 206.285 359.191,206.410 362.428,206.577 363.636 L 206.880 365.834 206.888 362.837 C 206.892 361.189,206.767 357.952,206.611 355.644 L 206.328 351.449 206.300 356.444 M13.344 362.238 C 13.345 365.315,13.408 366.521,13.484 364.918 C 13.560 363.315,13.559 360.797,13.483 359.323 C 13.406 357.849,13.344 359.161,13.344 362.238 M386.167 363.836 C 386.167 366.474,386.232 367.500,386.310 366.118 C 386.389 364.736,386.388 362.578,386.309 361.323 C 386.230 360.068,386.166 361.199,386.167 363.836 M13.679 372.028 C 13.679 372.797,13.761 373.112,13.862 372.727 C 13.962 372.343,13.962 371.713,13.862 371.329 C 13.761 370.944,13.679 371.259,13.679 372.028 M385.707 372.028 C 385.707 372.797,385.789 373.112,385.890 372.727 C 385.990 372.343,385.990 371.713,385.890 371.329 C 385.789 370.944,385.707 371.259,385.707 372.028 M23.676 385.890 C 24.061 385.990,24.690 385.990,25.075 385.890 C 25.460 385.789,25.145 385.707,24.376 385.707 C 23.606 385.707,23.292 385.789,23.676 385.890 M27.273 385.890 C 27.657 385.990,28.287 385.990,28.671 385.890 C 29.056 385.789,28.741 385.707,27.972 385.707 C 27.203 385.707,26.888 385.789,27.273 385.890 M371.329 385.890 C 371.713 385.990,372.343 385.990,372.727 385.890 C 373.112 385.789,372.797 385.707,372.028 385.707 C 371.259 385.707,370.944 385.789,371.329 385.890 M32.484 386.311 C 33.977 386.388,36.314 386.387,37.679 386.309 C 39.043 386.232,37.822 386.169,34.965 386.169 C 32.108 386.170,30.991 386.234,32.484 386.311 M65.435 386.313 C 72.083 386.375,82.962 386.375,89.610 386.313 C 96.259 386.252,90.819 386.202,77.522 386.202 C 64.226 386.202,58.786 386.252,65.435 386.313 M318.781 386.313 C 323.671 386.377,331.673 386.377,336.563 386.313 C 341.454 386.250,337.453 386.198,327.672 386.198 C 317.892 386.198,313.891 386.250,318.781 386.313 M360.558 386.311 C 362.271 386.386,364.968 386.386,366.552 386.310 C 368.135 386.235,366.733 386.173,363.437 386.174 C 360.140 386.174,358.844 386.236,360.558 386.311 M206.404 388.087 C 206.243 389.117,206.196 390.196,206.300 390.485 C 206.403 390.773,206.621 390.166,206.782 389.136 C 206.944 388.106,206.991 387.027,206.887 386.738 C 206.783 386.450,206.566 387.057,206.404 388.087 M221.953 388.511 L 220.779 389.810 222.078 388.637 C 222.792 387.991,223.377 387.407,223.377 387.338 C 223.377 387.029,223.047 387.301,221.953 388.511 M7.792 391.209 C 9.097 392.527,10.255 393.606,10.365 393.606 C 10.474 393.606,9.497 392.527,8.192 391.209 C 6.887 389.890,5.729 388.811,5.619 388.811 C 5.510 388.811,6.487 389.890,7.792 391.209 M391.396 391.309 L 389.011 393.806 391.508 391.421 C 392.882 390.109,394.006 388.985,394.006 388.924 C 394.006 388.628,393.612 388.989,391.396 391.309 M114.414 399.500 C 121.188 399.562,132.157 399.562,138.790 399.500 C 145.423 399.439,139.880 399.388,126.474 399.389 C 113.067 399.389,107.640 399.439,114.414 399.500 M174.525 399.499 C 176.558 399.571,179.885 399.571,181.918 399.499 C 183.951 399.426,182.288 399.367,178.222 399.367 C 174.156 399.367,172.493 399.426,174.525 399.499 M272.656 399.500 C 279.650 399.562,290.979 399.562,297.831 399.500 C 304.683 399.439,298.961 399.389,285.115 399.389 C 271.269 399.389,265.662 399.439,272.656 399.500 " stroke="none" fill="#595959" fill-rule="evenodd"></path></g></svg>