<svg width="37" height="25" viewBox="0 0 37 25" fill="none" xmlns="http://www.w3.org/2000/svg">
<path d="M32.5443 3.73264H18.0801L14.4641 0.694443H3.61603C1.60913 0.694443 0.0180801 2.04644 0.0180801 3.73264L0 21.9618C0 23.648 1.60913 25 3.61603 25H32.5443C34.5512 25 36.1603 23.648 36.1603 21.9618V6.77083C36.1603 5.08463 34.5512 3.73264 32.5443 3.73264Z" fill="#B3CE0A" fill-opacity="0.6"/>
<g clip-path="url(#clip0)">
<path d="M31.2081 22.7328H7.5732C7.167 22.7328 6.83768 22.505 6.83768 22.2241C6.83768 21.1003 8.15491 20.1893 9.77978 20.1893H29.0015C30.6264 20.1893 31.9436 21.1003 31.9436 22.2241C31.9436 22.505 31.6143 22.7328 31.2081 22.7328Z" fill="#009900"/>
<path d="M9.5346 19.1719C8.04752 19.1719 6.83768 18.3351 6.83768 17.3066C6.83768 16.2781 8.04752 15.4414 9.5346 15.4414C11.0217 15.4414 12.2315 16.2781 12.2315 17.3066C12.2315 18.3351 11.0217 19.1719 9.5346 19.1719Z" fill="#009900"/>
<path d="M26.3723 15.9378V16.1196H28.579V15.0567L26.3723 15.9378Z" fill="#009900"/>
<path d="M30.4722 17.137H24.9012V15.3504L28.386 13.9589C29.0802 13.6818 29.3528 13.071 28.9712 12.5835C28.5753 12.0777 27.657 11.9005 26.9415 12.1861L22.6949 13.8818C22.2234 14.0701 21.9659 14.4118 21.9655 14.7631H21.9592V16.1196H14.1436C13.8785 16.1196 13.6243 16.152 13.3889 16.2113C13.5903 16.5492 13.7022 16.919 13.7022 17.3066C13.7022 17.9115 13.4309 18.4732 12.9687 18.9373C13.309 19.0857 13.7116 19.1719 14.1436 19.1719H30.4416C31.2432 19.1719 31.9208 18.7372 31.9427 18.183C31.9655 17.6081 31.2984 17.137 30.4722 17.137V17.137Z" fill="#009900"/>
<path d="M26.1941 10.4018C25.7275 10.1961 25.2193 10.0453 24.6881 9.95303C23.8874 10.5144 22.7754 10.863 21.5478 10.863C20.3049 10.863 19.1805 10.5057 18.3776 9.93184C16.0776 10.288 14.3588 11.7084 14.3588 13.4066V14.0848C14.3588 14.6467 15.0174 15.1022 15.8298 15.1022H16.3202H19.7526C20.1588 15.1022 20.4881 14.8745 20.4881 14.5935V14.5933C20.4881 14.3125 20.1589 14.0848 19.7528 14.0848H17.3009C16.8947 14.0848 16.5654 13.8571 16.5654 13.5761V12.5731C16.5654 12.2992 16.8697 12.0635 17.2653 12.0506C17.6877 12.0368 18.0364 12.2696 18.0364 12.5587V13.0674H19.7526C20.3049 13.0674 20.8101 13.2088 21.1976 13.4416C21.411 13.2677 21.6669 13.1175 21.9594 13.0007L26.206 11.3051L27.1346 10.9343C26.8537 10.7329 26.5388 10.5537 26.1941 10.4018V10.4018Z" fill="#009900"/>
<path d="M21.5478 9.84563C19.9255 9.84563 18.6057 8.93281 18.6057 7.81081C18.6057 6.68882 19.9255 5.776 21.5478 5.776C23.1701 5.776 24.4899 6.68882 24.4899 7.81081C24.4899 8.93281 23.1701 9.84563 21.5478 9.84563Z" fill="#009900"/>
</g>
<defs>
<clipPath id="clip0">
<rect width="25.155" height="17.3977" fill="white" transform="translate(6.81281 5.55556)"/>
</clipPath>
</defs>
</svg>
