<svg width="15" height="15" viewBox="0 0 15 15" fill="none" xmlns="http://www.w3.org/2000/svg">
<g clip-path="url(#clip0)">
<path d="M8.36404 0.0380907C8.24099 0.0937547 8.0945 0.269536 8.05935 0.401372C8.04177 0.462895 8.02712 0.585942 8.02712 0.673833C8.02419 1.37989 7.62282 1.93067 7.00173 2.08008C6.92849 2.09473 6.67947 2.12403 6.44509 2.13868C5.94997 2.1709 5.61306 2.24707 5.28493 2.40235C4.14821 2.92969 3.39821 4.06934 3.23708 5.5166C3.2195 5.67481 3.21071 5.68946 3.09646 5.75977C2.82693 5.92676 2.73025 6 2.51638 6.20508C2.17653 6.52735 1.90993 6.9375 1.76052 7.37403C1.61989 7.79004 1.57302 8.36719 1.65212 8.76856L1.69021 8.96485L1.4529 9.12305C0.685324 9.63281 0.187277 10.3975 0.0437221 11.2822C-0.237528 13.0225 0.957785 14.6719 2.70681 14.9561C3.10525 15.0205 11.8943 15.0205 12.2927 14.9561C14.0388 14.6719 15.2371 13.0195 14.9558 11.2822C14.8123 10.3975 14.3054 9.6211 13.5467 9.12305L13.3093 8.96778L13.3504 8.75391C13.409 8.45801 13.3855 7.91309 13.3035 7.58789C13.2244 7.27735 12.9988 6.81153 12.8084 6.5625C12.6472 6.34864 12.3191 6.0293 12.1228 5.89453C11.9676 5.78907 11.572 5.58692 11.4197 5.54004L11.3142 5.50489L11.4109 5.29395C11.5222 5.05078 11.6336 4.70801 11.7039 4.39453C11.7683 4.09571 11.7947 3.38086 11.7508 3.07618C11.5457 1.69043 10.4851 0.448247 9.199 0.0878954C8.91189 0.00879383 8.48415 -0.0175733 8.36404 0.0380907ZM9.39822 1.32715C9.67361 1.48243 10.0252 1.81055 10.2215 2.0918C10.6111 2.65723 10.7664 3.24317 10.6931 3.89356C10.6492 4.30078 10.5496 4.63477 10.3533 5.03028L10.1892 5.36133H9.85525C9.42458 5.36133 9.28982 5.41992 9.16677 5.66016C9.06716 5.85352 9.10232 6.09082 9.25173 6.24903C9.39822 6.4043 9.44802 6.41602 9.98122 6.41602C10.7664 6.41895 11.0828 6.48633 11.4607 6.73828C11.7127 6.90235 11.8738 7.06641 12.0349 7.31836C12.2371 7.63184 12.3426 8.06836 12.3133 8.4375L12.2986 8.59863L11.2117 8.58985C10.614 8.58399 10.0808 8.58692 10.0281 8.59863C9.89333 8.62207 9.74099 8.76563 9.67947 8.9209C9.58572 9.17285 9.69704 9.45996 9.93728 9.57715C10.0603 9.63574 10.1101 9.63867 11.0066 9.63867C12.0232 9.63867 12.2342 9.65918 12.5681 9.79395C12.8552 9.91113 13.0662 10.0488 13.2859 10.2686C13.6902 10.667 13.8836 11.1123 13.9099 11.6953C13.9275 12.126 13.8718 12.3838 13.6873 12.7529C13.5789 12.9756 13.5086 13.0693 13.2888 13.2861C12.9842 13.5908 12.6912 13.7607 12.3162 13.8574C12.0965 13.9131 11.9705 13.916 7.49978 13.916C3.02907 13.916 2.9031 13.9131 2.68337 13.8574C2.30544 13.7607 2.0154 13.5908 1.71071 13.2891C1.49099 13.0693 1.42068 12.9756 1.30935 12.7529C1.12771 12.3838 1.07204 12.126 1.08962 11.6953C1.10134 11.4375 1.12185 11.2969 1.18044 11.124C1.3738 10.5293 1.83962 10.0342 2.43142 9.79395C2.7654 9.65918 2.97634 9.63867 3.99294 9.63867C5.06521 9.63867 5.11501 9.62988 5.25564 9.41309C5.4197 9.16699 5.36989 8.85645 5.13845 8.6836L5.03005 8.59863H3.86404H2.70095L2.6863 8.44629C2.66579 8.26465 2.70681 7.91895 2.77126 7.71973C2.91189 7.28906 3.28982 6.84375 3.69118 6.64453C4.04568 6.46582 4.18923 6.43946 4.86306 6.42481C5.19411 6.41895 5.49294 6.40723 5.5281 6.39844C5.62185 6.38086 5.80349 6.21387 5.84743 6.10254C5.95876 5.8418 5.8445 5.54883 5.58669 5.417C5.48708 5.36426 5.42263 5.3584 4.907 5.36719C4.39431 5.37598 4.33571 5.37012 4.33571 5.3291C4.33571 5.30274 4.37087 5.16211 4.41189 5.02149C4.61696 4.30371 5.08571 3.7002 5.65114 3.41895C5.94118 3.27246 6.09939 3.23731 6.66482 3.19629C7.68435 3.12305 8.3904 2.70118 8.78591 1.93653C8.88845 1.73145 8.99099 1.45606 9.03493 1.25098C9.05837 1.14844 9.09646 1.15723 9.39822 1.32715Z" fill="white"/>
</g>
<defs>
<clipPath id="clip0">
<rect width="15" height="15" fill="white"/>
</clipPath>
</defs>
</svg>
