<svg width="9" height="10" viewBox="0 0 9 10" fill="#A54BFF" xmlns="http://www.w3.org/2000/svg">
<path d="M9 1.11114V8.88886C9 9.50217 8.73702 10 8.41303 10H0.58697C0.26298 10 0 9.50217 0 8.88886L0 1.11114C0 0.497825 0.26298 0 0.58697 0L8.41303 0C8.73702 0 9 0.497825 9 1.11114Z"/>
<path d="M3.13076 0V4.44457C3.13076 5.05789 2.86793 5.55572 2.54394 5.55572C2.21948 5.55572 1.95697 5.05789 1.95697 4.44457L1.95697 0L3.13076 0Z" fill="black"/>
<path d="M5.08696 0V4.44457C5.08696 5.05789 4.82398 5.55572 4.49999 5.55572C4.176 5.55572 3.91302 5.05789 3.91302 4.44457V0L5.08696 0Z" fill="black"/>
<path d="M7.04318 0V4.44458C7.04318 5.05789 6.78051 5.55572 6.4562 5.55572C6.13221 5.55572 5.86923 5.05789 5.86923 4.44458V0L7.04318 0Z" fill="black"/>
<path d="M4.48059 0V5.55366C4.48711 5.55425 4.49348 5.55572 4.5 5.55572C4.82399 5.55572 5.08696 5.05789 5.08696 4.44457V0L4.48059 0Z" fill="black"/>
</svg>
