<svg width="58" height="60" viewBox="0 0 58 60" fill="none" xmlns="http://www.w3.org/2000/svg">
<g clip-path="url(#clip0)">
<path d="M31.3221 34.8782L22.2399 48.8611C20.6801 51.2625 17.0821 51.7038 14.2199 49.8447C11.3577 47.9857 10.2979 44.519 11.8577 42.1176L20.9399 28.1348C21.1865 27.7552 21.7538 27.6856 22.2063 27.9795L30.9491 33.6582C31.4016 33.952 31.5687 34.4987 31.3221 34.8782V34.8782Z" fill="#FF2E3D"/>
<path d="M43.7313 18.1655L38.9019 25.6008C38.5211 26.1871 37.8447 26.4245 37.3923 26.1307L26.4638 19.0323C26.0114 18.7385 25.9533 18.024 26.3341 17.4377L31.1635 10.0025C31.5443 9.41614 32.2207 9.17876 32.6731 9.47262L43.6016 16.5709C44.054 16.8648 44.1121 17.5792 43.7313 18.1655Z" fill="#A54BFF"/>
<path d="M36.2253 11.7799L33.4655 16.0288C33.0847 16.6151 32.4086 16.8526 31.9561 16.5587C31.5031 16.2644 31.4456 15.5504 31.8264 14.9641L34.5862 10.7152L36.2253 11.7799Z" fill="#3949AB"/>
<path d="M38.9569 13.5542L36.1972 17.803C35.8164 18.3894 35.14 18.6267 34.6876 18.3329C34.2352 18.039 34.177 17.3246 34.5579 16.7383L37.3176 12.4894L38.9569 13.5542Z" fill="#3949AB"/>
<path d="M43.6015 16.5709L38.1102 13.0042L31.9009 22.5639L37.3923 26.1307C37.8447 26.4245 38.5211 26.1871 38.9019 25.6008L43.7313 18.1656C44.1121 17.5792 44.054 16.8648 43.6015 16.5709Z" fill="#A54BFF"/>
<path d="M38.1102 13.0042L34.6618 18.3133C34.6705 18.3198 34.6785 18.327 34.6876 18.3329C35.14 18.6268 35.8164 18.3894 36.1972 17.8031L38.957 13.5542L38.1102 13.0042Z" fill="black"/>
<path d="M41.6887 15.3285L38.9289 19.5773C38.5481 20.1637 37.8722 20.4013 37.4193 20.1072C36.9669 19.8133 36.9087 19.0989 37.2896 18.5126L40.0493 14.2637L41.6887 15.3285Z" fill="black"/>
<path d="M28.4923 24.8809C28.1114 25.4673 27.4351 25.7046 26.9827 25.4108L23.9772 23.4586L25.3571 21.3342L28.3625 23.2863C28.815 23.5802 28.8731 24.2946 28.4923 24.8809Z" fill="black"/>
<path d="M25.7325 29.1298C25.3517 29.7161 24.6753 29.9535 24.2229 29.6597L21.2174 27.7075L22.5973 25.5831L25.6028 27.5352C26.0552 27.8291 26.1133 28.5435 25.7325 29.1298Z" fill="black"/>
<path d="M22.9729 33.3784C22.5919 33.965 21.9158 34.2021 21.4633 33.9083L18.4579 31.9561L19.8376 29.832L22.843 31.7841C23.2955 32.078 23.3538 32.7921 22.9729 33.3784V33.3784Z" fill="black"/>
<path d="M20.2132 37.6273C19.8324 38.2136 19.156 38.451 18.7036 38.1572L15.6981 36.205L17.078 34.0806L20.0835 36.0327C20.5359 36.3266 20.594 37.041 20.2132 37.6273Z" fill="black"/>
<path d="M31.4672 34.0511L37.0527 26.1066L27.1698 19.2341L21.1264 28.2059" stroke="black" stroke-width="0.3"/>
</g>
<defs>
<clipPath id="clip0">
<rect width="35" height="52" fill="white" transform="translate(28.3248 -3) rotate(33.0047)"/>
</clipPath>
</defs>
</svg>
