<?xml version="1.0" encoding="iso-8859-1"?>
<!-- Generator: Adobe Illustrator 21.0.0, SVG Export Plug-In . SVG Version: 6.00 Build 0)  -->
<svg xmlns="http://www.w3.org/2000/svg" xmlns:xlink="http://www.w3.org/1999/xlink" version="1.1" id="Capa_1" x="0px" y="0px" viewBox="0 0 512 512" style="enable-background:new 0 0 512 512;" xml:space="preserve" width="512" height="512">
<g>
	<g>
		<path style="fill:rgb(0,0,0);" d="M256,251.992c-5.523,0-10,4.478-10,10v131.347c0,5.522,4.477,10,10,10c5.522,0,10-4.478,10-10    V261.992C266,256.47,261.522,251.992,256,251.992z"/>
		<path style="fill:rgb(0,0,0);" d="M227.219,285.298h-44.426c-2.24,0-3.449-1.355-3.971-2.163s-1.259-2.467-0.337-4.509    c0.763-1.689,2.454-2.781,4.308-2.781c5.523,0,10-4.478,10-10s-4.477-10-10-10c-9.7,0-18.547,5.713-22.537,14.554    c-3.47,7.685-2.81,16.502,1.764,23.586c4.575,7.084,12.34,11.313,20.772,11.313h44.426c5.523,0,10-4.478,10-10    S232.742,285.298,227.219,285.298z"/>
		<path style="fill:rgb(0,0,0);" d="M227.219,318.751h-63.778c-2.24,0-3.449-1.354-3.97-2.162s-1.259-2.468-0.338-4.509    c2.272-5.034,0.034-10.956-5-13.229c-5.035-2.272-10.957-0.033-13.229,5c-3.469,7.686-2.81,16.503,1.765,23.587    c4.575,7.083,12.34,11.313,20.772,11.313h63.778c5.523,0,10-4.478,10-10S232.742,318.751,227.219,318.751z"/>
		<path style="fill:rgb(0,0,0);" d="M227.219,355.203h-54.102c-2.442,0-4.046-1.719-4.552-3.423c-1.573-5.294-7.139-8.311-12.433-6.738    s-8.312,7.139-6.739,12.434c3.149,10.604,12.684,17.728,23.724,17.728h54.102c5.523,0,10-4.478,10-10    S232.742,355.203,227.219,355.203z"/>
		<path style="fill:rgb(0,0,0);" d="M227.219,252.845h-17.45c-5.523,0-10,4.478-10,10s4.477,10,10,10h17.45c5.523,0,10-4.478,10-10    S232.742,252.845,227.219,252.845z"/>
		<path style="fill:rgb(0,0,0);" d="M285.512,305.298h44.426c8.433,0,16.197-4.229,20.772-11.313c4.574-7.084,5.234-15.9,1.765-23.586    c-3.991-8.841-12.837-14.554-22.537-14.554c-5.522,0-10,4.478-10,10s4.478,10,10,10c1.854,0,3.546,1.092,4.309,2.782    c0.921,2.041,0.184,3.7-0.338,4.508s-1.731,2.163-3.971,2.163h-44.426c-5.522,0-10,4.478-10,10S279.989,305.298,285.512,305.298z"/>
		<path style="fill:rgb(0,0,0);" d="M358.596,298.852c-5.033,2.272-7.271,8.195-4.999,13.229c0.922,2.04,0.185,3.699-0.337,4.507    s-1.731,2.163-3.971,2.163h-63.777c-5.522,0-10,4.478-10,10s4.478,10,10,10h63.777c8.433,0,16.198-4.229,20.772-11.313    s5.233-15.901,1.764-23.587C369.552,298.816,363.627,296.579,358.596,298.852z"/>
		<path style="fill:rgb(0,0,0);" d="M356.599,345.042c-5.299-1.573-10.861,1.444-12.434,6.738c-0.506,1.704-2.109,3.423-4.552,3.423    h-54.102c-5.522,0-10,4.478-10,10s4.478,10,10,10h54.102c11.04,0,20.574-7.124,23.724-17.728    C364.909,352.181,361.893,346.614,356.599,345.042z"/>
		<path style="fill:rgb(0,0,0);" d="M346.599,381.413c-5.297-1.575-10.861,1.445-12.434,6.738c-0.506,1.704-2.109,3.423-4.552,3.423    h-44.102c-5.522,0-10,4.478-10,10s4.478,10,10,10h44.102c11.04,0,20.574-7.124,23.724-17.728    C354.909,388.552,351.893,382.985,346.599,381.413z"/>
		<path style="fill:rgb(0,0,0);" d="M226.754,391.574h-44.102c-2.442,0-4.046-1.719-4.552-3.423c-1.573-5.294-7.139-8.312-12.433-6.738    c-5.294,1.572-8.312,7.139-6.739,12.434c3.149,10.604,12.684,17.728,23.724,17.728h44.102c5.523,0,10-4.478,10-10    S232.277,391.574,226.754,391.574z"/>
		<path style="fill:rgb(0,0,0);" d="M285.512,272.845h17.449c5.522,0,10-4.478,10-10s-4.478-10-10-10h-17.449c-5.522,0-10,4.478-10,10    S279.989,272.845,285.512,272.845z"/>
		<path style="fill:rgb(0,0,0);" d="M265.229,426.95c-1.611-3.934-5.702-6.455-9.941-6.148c-4.155,0.301-7.745,3.226-8.898,7.224    c-1.157,4.011,0.402,8.441,3.787,10.874c3.339,2.4,7.953,2.47,11.372,0.189C265.466,436.478,267.04,431.293,265.229,426.95z"/>
		<path style="fill:rgb(0,0,0);" d="M36.11,376.75c2.283,3.488,6.71,5.166,10.738,4.15c3.98-1.004,7.048-4.464,7.508-8.556    c0.467-4.153-1.766-8.252-5.513-10.104c-3.794-1.875-8.497-1.096-11.493,1.891C34.012,367.458,33.503,372.839,36.11,376.75z"/>
		<path style="fill:rgb(0,0,0);" d="M328.78,168.14h-14.853c21.987-17.235,36.14-44.029,36.14-74.068C350.067,42.2,307.867,0,255.996,0    s-94.071,42.2-94.071,94.071c0,30.039,14.153,56.833,36.14,74.068H183.22c-82.049,0-148.8,66.752-148.8,148.801v18.489    c0,5.522,4.477,10,10,10s10-4.478,10-10V316.94c0-71.021,57.779-128.801,128.8-128.801h72.468c0.103,0,0.205,0.004,0.308,0.004    s0.205-0.004,0.308-0.004h72.476c71.021,0,128.8,57.779,128.8,128.801V437.27c0,6.487-2.523,12.579-7.111,17.159    c-4.579,4.579-10.673,7.102-17.159,7.102c-5.705,0-11.201-2.019-15.529-5.627V253.41c0-19.448-15.822-35.271-35.271-35.271H129.48    c-19.448,0-35.27,15.822-35.27,35.271v202.506c-4.347,3.62-9.862,5.614-15.53,5.614c-13.377,0-24.26-10.884-24.26-24.261v-29.72    c0-5.522-4.477-10-10-10s-10,4.478-10,10v29.72c0,24.405,19.855,44.261,44.26,44.261c5.357,0,10.637-0.985,15.589-2.849    C95.284,497.225,110.687,512,129.478,512h32.51h186.425h34.102c18.792,0,34.195-14.775,35.208-33.319    c4.934,1.858,10.208,2.849,15.586,2.849c11.828,0,22.944-4.603,31.296-12.954c8.367-8.354,12.975-19.472,12.975-31.307V316.94    C477.58,234.892,410.829,168.14,328.78,168.14z M181.925,94.071c0-40.843,33.228-74.071,74.071-74.071    c40.843,0,74.071,33.229,74.071,74.071c0,40.792-33.146,73.985-73.917,74.068h-0.308    C215.07,168.056,181.925,134.863,181.925,94.071z M171.988,492v-16.313c0-8.448,6.874-15.321,15.322-15.321h32.41    c4.097,0,7.947,1.596,10.841,4.494l0.297,0.298c6.677,6.687,15.545,10.363,24.989,10.362c0.05,0,0.101,0,0.15,0    c9.499-0.039,18.396-3.793,25.052-10.569c2.862-2.914,6.847-4.585,10.932-4.585h31.109c8.448,0,15.322,6.873,15.322,15.321V492    H171.988z M397.779,476.735c0,8.417-6.848,15.265-15.265,15.265h-24.102v-16.313c0-19.477-15.846-35.321-35.322-35.321h-31.109    c-9.417,0-18.602,3.853-25.199,10.57c-2.888,2.938-6.747,4.567-10.867,4.584c-0.022,0-0.043,0-0.065,0    c-4.096,0-7.944-1.595-10.839-4.494l-0.296-0.297c-6.673-6.683-15.549-10.363-24.994-10.363h-32.41    c-19.477,0-35.322,15.845-35.322,35.321V492h-22.51c-8.417,0-15.265-6.848-15.265-15.265V253.408    c0-8.417,6.848-15.265,15.265-15.265h253.037c8.417,0,15.265,6.848,15.265,15.264V476.735z"/>
	</g>
</g>















</svg>